<svg width="91" height="20" viewBox="0 0 91 20" fill="none" xmlns="http://www.w3.org/2000/svg">
<path d="M0 4C0 1.79086 1.79086 0 4 0H20V20H4C1.79086 20 0 18.2091 0 16V4Z" fill="#D95319"/>
<g clip-path="url(#clip0_314_166)">
<path d="M6.175 11.5752C5.575 11.1252 4.825 10.6002 4 10.0002C4.975 9.6252 5.95 9.2502 6.925 8.8752L8.125 9.7752C7.225 10.8252 6.625 11.2002 6.175 11.5752ZM14.2 8.4252C13.975 7.8252 13.825 7.2252 13.6 6.6252C13.375 5.9502 13.15 5.3502 12.775 4.8252C12.625 4.6002 12.325 4.0752 11.95 4.0752C11.875 4.0752 11.8 4.1502 11.725 4.1502C11.5 4.2252 11.2 4.6752 11.125 4.9752C10.9 5.3502 10.45 5.9502 10.15 6.3252C10.075 6.4752 9.925 6.6252 9.85 6.7002C9.625 6.8502 9.4 7.0752 9.1 7.2252C9.025 7.2252 8.95 7.3002 8.875 7.3002C8.65 7.3002 8.5 7.4502 8.35 7.5252C8.125 7.7502 7.9 8.0502 7.675 8.2752C7.675 8.3502 7.6 8.4252 7.525 8.5002L8.65 9.3252C9.475 8.3502 10.45 7.3752 11.125 5.5002C11.125 5.5002 10.9 7.5252 9.1 9.7002C7.975 10.9752 7.075 11.6502 6.925 11.8002C6.925 11.8002 7.225 11.7252 7.525 11.8752C8.125 12.1002 8.425 12.9252 8.65 13.5252C8.8 13.9752 9.025 14.3502 9.175 14.8002C9.775 14.6502 10.15 14.4252 10.525 14.0502C10.9 13.6752 11.275 13.2252 11.65 12.8502C12.325 12.0252 13.15 10.9752 14.2 11.5002C14.35 11.5752 14.575 11.7252 14.65 11.8002C14.875 11.9502 15.025 12.1002 15.25 12.3252C15.625 12.6252 15.775 12.8502 16.075 13.0002C15.325 11.5002 14.8 10.0002 14.2 8.4252Z" fill="white"/>
</g>
<path d="M20 0H87C89.2091 0 91 1.79086 91 4V16C91 18.2091 89.2091 20 87 20H20V0Z" fill="#0076A8"/>
<path d="M26.5107 5.89062V13H25.0459V5.89062H26.5107ZM29.3428 8.92773V10.0703H26.1104V8.92773H29.3428ZM29.6846 5.89062V7.03809H26.1104V5.89062H29.6846ZM31.9307 7.7168V13H30.5195V7.7168H31.9307ZM30.4316 6.33984C30.4316 6.13477 30.5033 5.96549 30.6465 5.83203C30.7897 5.69857 30.9818 5.63184 31.2227 5.63184C31.4603 5.63184 31.6507 5.69857 31.7939 5.83203C31.9404 5.96549 32.0137 6.13477 32.0137 6.33984C32.0137 6.54492 31.9404 6.71419 31.7939 6.84766C31.6507 6.98112 31.4603 7.04785 31.2227 7.04785C30.9818 7.04785 30.7897 6.98112 30.6465 6.84766C30.5033 6.71419 30.4316 6.54492 30.4316 6.33984ZM34.5771 5.5V13H33.166V5.5H34.5771ZM38.1709 13.0977C37.7607 13.0977 37.3929 13.0326 37.0674 12.9023C36.7419 12.7689 36.4652 12.585 36.2373 12.3506C36.0127 12.1162 35.8402 11.8444 35.7197 11.5352C35.5993 11.2227 35.5391 10.8906 35.5391 10.5391V10.3438C35.5391 9.94336 35.596 9.57715 35.71 9.24512C35.8239 8.91309 35.9867 8.625 36.1982 8.38086C36.4131 8.13672 36.6735 7.94954 36.9795 7.81934C37.2855 7.68587 37.6305 7.61914 38.0146 7.61914C38.389 7.61914 38.721 7.68099 39.0107 7.80469C39.3005 7.92839 39.543 8.10417 39.7383 8.33203C39.9368 8.5599 40.0866 8.83333 40.1875 9.15234C40.2884 9.4681 40.3389 9.81966 40.3389 10.207V10.793H36.1396V9.85547H38.957V9.74805C38.957 9.55273 38.9212 9.37858 38.8496 9.22559C38.7812 9.06934 38.6771 8.94564 38.5371 8.85449C38.3971 8.76335 38.2181 8.71777 38 8.71777C37.8145 8.71777 37.6549 8.75846 37.5215 8.83984C37.388 8.92122 37.279 9.03516 37.1943 9.18164C37.113 9.32812 37.0511 9.50065 37.0088 9.69922C36.9697 9.89453 36.9502 10.1094 36.9502 10.3438V10.5391C36.9502 10.7507 36.9795 10.946 37.0381 11.125C37.0999 11.304 37.1862 11.4587 37.2969 11.5889C37.4108 11.7191 37.5475 11.82 37.707 11.8916C37.8698 11.9632 38.0537 11.999 38.2588 11.999C38.5127 11.999 38.7487 11.9502 38.9668 11.8525C39.1882 11.7516 39.3786 11.6003 39.5381 11.3984L40.2217 12.1406C40.111 12.3001 39.9596 12.4531 39.7676 12.5996C39.5788 12.7461 39.3509 12.8665 39.084 12.9609C38.8171 13.0521 38.5127 13.0977 38.1709 13.0977ZM48.4883 11.8574V13H44.7041V11.8574H48.4883ZM45.1826 5.89062V13H43.7178V5.89062H45.1826ZM47.9951 8.78613V9.89941H44.7041V8.78613H47.9951ZM48.4834 5.89062V7.03809H44.7041V5.89062H48.4834ZM50.3877 7.7168L51.2617 9.32324L52.1602 7.7168H53.6592L52.165 10.2998L53.7275 13H52.2236L51.2715 11.3008L50.3193 13H48.8154L50.3779 10.2998L48.8838 7.7168H50.3877ZM56.4277 11.999C56.6003 11.999 56.7533 11.9665 56.8867 11.9014C57.0202 11.833 57.1243 11.7386 57.1992 11.6182C57.2773 11.4945 57.318 11.3496 57.3213 11.1836H58.6445C58.6413 11.5547 58.542 11.8851 58.3467 12.1748C58.1514 12.4613 57.8893 12.6875 57.5605 12.8535C57.2318 13.0163 56.8639 13.0977 56.457 13.0977C56.0469 13.0977 55.6888 13.0293 55.3828 12.8926C55.0801 12.7559 54.8278 12.5671 54.626 12.3262C54.4242 12.082 54.2728 11.7988 54.1719 11.4766C54.071 11.151 54.0205 10.8027 54.0205 10.4316V10.29C54.0205 9.91569 54.071 9.56738 54.1719 9.24512C54.2728 8.9196 54.4242 8.63639 54.626 8.39551C54.8278 8.15137 55.0801 7.96094 55.3828 7.82422C55.6855 7.6875 56.0404 7.61914 56.4473 7.61914C56.8802 7.61914 57.2594 7.70215 57.585 7.86816C57.9137 8.03418 58.1709 8.27181 58.3564 8.58105C58.5452 8.88704 58.6413 9.25 58.6445 9.66992H57.3213C57.318 9.49414 57.2806 9.33464 57.209 9.19141C57.1406 9.04818 57.0397 8.93424 56.9062 8.84961C56.776 8.76172 56.6149 8.71777 56.4229 8.71777C56.2178 8.71777 56.0501 8.76172 55.9199 8.84961C55.7897 8.93424 55.6888 9.05143 55.6172 9.20117C55.5456 9.34766 55.4951 9.5153 55.4658 9.7041C55.4398 9.88965 55.4268 10.085 55.4268 10.29V10.4316C55.4268 10.6367 55.4398 10.8337 55.4658 11.0225C55.4919 11.2113 55.5407 11.3789 55.6123 11.5254C55.6872 11.6719 55.7897 11.7874 55.9199 11.8721C56.0501 11.9567 56.2194 11.999 56.4277 11.999ZM60.832 5.5V13H59.4258V5.5H60.832ZM60.6318 10.1729H60.2461C60.2493 9.80501 60.2982 9.46647 60.3926 9.15723C60.487 8.84473 60.6221 8.57454 60.7979 8.34668C60.9736 8.11556 61.1836 7.93652 61.4277 7.80957C61.6751 7.68262 61.9486 7.61914 62.248 7.61914C62.5085 7.61914 62.7445 7.65658 62.9561 7.73145C63.1709 7.80306 63.3548 7.92025 63.5078 8.08301C63.6641 8.24251 63.7845 8.45247 63.8691 8.71289C63.9538 8.97331 63.9961 9.28906 63.9961 9.66016V13H62.5801V9.65039C62.5801 9.41602 62.5459 9.2321 62.4775 9.09863C62.4124 8.96191 62.3164 8.86589 62.1895 8.81055C62.0658 8.75195 61.9128 8.72266 61.7305 8.72266C61.5286 8.72266 61.3561 8.76009 61.2129 8.83496C61.0729 8.90983 60.9606 9.014 60.876 9.14746C60.7913 9.27767 60.7295 9.43066 60.6904 9.60645C60.6514 9.78223 60.6318 9.97103 60.6318 10.1729ZM67.917 11.8086V9.45508C67.917 9.28581 67.8893 9.14095 67.834 9.02051C67.7786 8.89681 67.6924 8.80078 67.5752 8.73242C67.4613 8.66406 67.3132 8.62988 67.1309 8.62988C66.9746 8.62988 66.8395 8.65755 66.7256 8.71289C66.6117 8.76497 66.5238 8.84147 66.4619 8.94238C66.4001 9.04004 66.3691 9.1556 66.3691 9.28906H64.9629C64.9629 9.06445 65.015 8.85124 65.1191 8.64941C65.2233 8.44759 65.3747 8.27018 65.5732 8.11719C65.7718 7.96094 66.0078 7.83887 66.2812 7.75098C66.5579 7.66309 66.8672 7.61914 67.209 7.61914C67.6191 7.61914 67.9837 7.6875 68.3027 7.82422C68.6217 7.96094 68.8724 8.16602 69.0547 8.43945C69.2402 8.71289 69.333 9.05469 69.333 9.46484V11.7256C69.333 12.0153 69.3509 12.2529 69.3867 12.4385C69.4225 12.6208 69.4746 12.7803 69.543 12.917V13H68.1221C68.0537 12.8568 68.0016 12.6777 67.9658 12.4629C67.9333 12.2448 67.917 12.0267 67.917 11.8086ZM68.1025 9.78223L68.1123 10.5781H67.3262C67.1406 10.5781 66.9795 10.5993 66.8428 10.6416C66.7061 10.6839 66.5938 10.7441 66.5059 10.8223C66.418 10.8971 66.3529 10.985 66.3105 11.0859C66.2715 11.1868 66.252 11.2975 66.252 11.418C66.252 11.5384 66.2796 11.6475 66.335 11.7451C66.3903 11.8395 66.4701 11.9144 66.5742 11.9697C66.6784 12.0218 66.8005 12.0479 66.9404 12.0479C67.152 12.0479 67.3359 12.0055 67.4922 11.9209C67.6484 11.8363 67.7689 11.7321 67.8535 11.6084C67.9414 11.4847 67.987 11.3675 67.9902 11.2568L68.3613 11.8525C68.3092 11.986 68.2376 12.1243 68.1465 12.2676C68.0586 12.4108 67.9463 12.5459 67.8096 12.6729C67.6729 12.7965 67.5085 12.8991 67.3164 12.9805C67.1243 13.0586 66.8965 13.0977 66.6328 13.0977C66.2975 13.0977 65.9932 13.0309 65.7197 12.8975C65.4495 12.7607 65.2347 12.5736 65.0752 12.3359C64.9189 12.0951 64.8408 11.8216 64.8408 11.5156C64.8408 11.2389 64.8929 10.9932 64.9971 10.7783C65.1012 10.5635 65.2542 10.3828 65.4561 10.2363C65.6611 10.0866 65.9167 9.97428 66.2227 9.89941C66.5286 9.82129 66.8835 9.78223 67.2871 9.78223H68.1025ZM71.7939 8.84473V13H70.3877V7.7168H71.7061L71.7939 8.84473ZM71.5889 10.1729H71.208C71.208 9.78223 71.2585 9.43066 71.3594 9.11816C71.4603 8.80241 71.6019 8.53385 71.7842 8.3125C71.9665 8.08789 72.1829 7.91699 72.4336 7.7998C72.6875 7.67936 72.9707 7.61914 73.2832 7.61914C73.5306 7.61914 73.7568 7.65495 73.9619 7.72656C74.167 7.79818 74.3428 7.91211 74.4893 8.06836C74.639 8.22461 74.7529 8.43132 74.8311 8.68848C74.9124 8.94564 74.9531 9.25977 74.9531 9.63086V13H73.5371V9.62598C73.5371 9.3916 73.5046 9.20931 73.4395 9.0791C73.3743 8.94889 73.2783 8.85775 73.1514 8.80566C73.0277 8.75033 72.8747 8.72266 72.6924 8.72266C72.5036 8.72266 72.3392 8.76009 72.1992 8.83496C72.0625 8.90983 71.9486 9.014 71.8574 9.14746C71.7695 9.27767 71.7028 9.43066 71.6572 9.60645C71.6117 9.78223 71.5889 9.97103 71.5889 10.1729ZM79.3672 7.7168H80.6416V12.8242C80.6416 13.306 80.5342 13.7145 80.3193 14.0498C80.1077 14.3883 79.8115 14.6439 79.4307 14.8164C79.0498 14.9922 78.6071 15.0801 78.1025 15.0801C77.8812 15.0801 77.6468 15.0508 77.3994 14.9922C77.1553 14.9336 76.9209 14.8424 76.6963 14.7188C76.4749 14.5951 76.2894 14.4388 76.1396 14.25L76.7598 13.4199C76.9225 13.6087 77.1113 13.7552 77.3262 13.8594C77.541 13.9668 77.7786 14.0205 78.0391 14.0205C78.293 14.0205 78.5078 13.9733 78.6836 13.8789C78.8594 13.7878 78.9945 13.6527 79.0889 13.4736C79.1833 13.2979 79.2305 13.0846 79.2305 12.834V8.9375L79.3672 7.7168ZM75.8125 10.4219V10.3193C75.8125 9.91569 75.8613 9.54948 75.959 9.2207C76.0599 8.88867 76.2015 8.60384 76.3838 8.36621C76.5693 8.12858 76.7939 7.94466 77.0576 7.81445C77.3213 7.68424 77.6191 7.61914 77.9512 7.61914C78.3027 7.61914 78.5973 7.68424 78.835 7.81445C79.0726 7.94466 79.2679 8.13021 79.4209 8.37109C79.5739 8.60872 79.6927 8.8903 79.7773 9.21582C79.8652 9.53809 79.9336 9.89128 79.9824 10.2754V10.5C79.9336 10.8678 79.8604 11.2096 79.7627 11.5254C79.665 11.8411 79.5365 12.1178 79.377 12.3555C79.2174 12.5898 79.0189 12.7721 78.7812 12.9023C78.5469 13.0326 78.2669 13.0977 77.9414 13.0977C77.6159 13.0977 77.3213 13.0309 77.0576 12.8975C76.7972 12.764 76.5742 12.5768 76.3887 12.3359C76.2031 12.0951 76.0599 11.8118 75.959 11.4863C75.8613 11.1608 75.8125 10.806 75.8125 10.4219ZM77.2188 10.3193V10.4219C77.2188 10.64 77.2399 10.8434 77.2822 11.0322C77.3245 11.221 77.3896 11.3887 77.4775 11.5352C77.5687 11.6784 77.681 11.7907 77.8145 11.8721C77.9512 11.9502 78.1123 11.9893 78.2979 11.9893C78.555 11.9893 78.765 11.9355 78.9277 11.8281C79.0905 11.7174 79.2126 11.5661 79.2939 11.374C79.3753 11.182 79.4225 10.9606 79.4355 10.71V10.0703C79.429 9.86523 79.4014 9.68132 79.3525 9.51855C79.3037 9.35254 79.2354 9.21094 79.1475 9.09375C79.0596 8.97656 78.9456 8.88542 78.8057 8.82031C78.6657 8.75521 78.4997 8.72266 78.3076 8.72266C78.1221 8.72266 77.9609 8.76497 77.8242 8.84961C77.6908 8.93099 77.5785 9.04329 77.4873 9.18652C77.3994 9.32975 77.3327 9.49902 77.2871 9.69434C77.2415 9.88639 77.2188 10.0947 77.2188 10.3193ZM84.167 13.0977C83.7568 13.0977 83.389 13.0326 83.0635 12.9023C82.738 12.7689 82.4613 12.585 82.2334 12.3506C82.0088 12.1162 81.8363 11.8444 81.7158 11.5352C81.5954 11.2227 81.5352 10.8906 81.5352 10.5391V10.3438C81.5352 9.94336 81.5921 9.57715 81.7061 9.24512C81.82 8.91309 81.9827 8.625 82.1943 8.38086C82.4092 8.13672 82.6696 7.94954 82.9756 7.81934C83.2816 7.68587 83.6266 7.61914 84.0107 7.61914C84.3851 7.61914 84.7171 7.68099 85.0068 7.80469C85.2965 7.92839 85.5391 8.10417 85.7344 8.33203C85.9329 8.5599 86.0827 8.83333 86.1836 9.15234C86.2845 9.4681 86.335 9.81966 86.335 10.207V10.793H82.1357V9.85547H84.9531V9.74805C84.9531 9.55273 84.9173 9.37858 84.8457 9.22559C84.7773 9.06934 84.6732 8.94564 84.5332 8.85449C84.3932 8.76335 84.2142 8.71777 83.9961 8.71777C83.8105 8.71777 83.651 8.75846 83.5176 8.83984C83.3841 8.92122 83.2751 9.03516 83.1904 9.18164C83.109 9.32812 83.0472 9.50065 83.0049 9.69922C82.9658 9.89453 82.9463 10.1094 82.9463 10.3438V10.5391C82.9463 10.7507 82.9756 10.946 83.0342 11.125C83.096 11.304 83.1823 11.4587 83.293 11.5889C83.4069 11.7191 83.5436 11.82 83.7031 11.8916C83.8659 11.9632 84.0498 11.999 84.2549 11.999C84.5088 11.999 84.7448 11.9502 84.9629 11.8525C85.1842 11.7516 85.3747 11.6003 85.5342 11.3984L86.2178 12.1406C86.1071 12.3001 85.9557 12.4531 85.7637 12.5996C85.5749 12.7461 85.347 12.8665 85.0801 12.9609C84.8132 13.0521 84.5088 13.0977 84.167 13.0977Z" fill="white"/>
<defs>
<clipPath id="clip0_314_166">
<rect width="12" height="12" fill="white" transform="translate(4 4)"/>
</clipPath>
</defs>
</svg>
