<?xml version="1.0" encoding="UTF-8" standalone="no"?>
<!DOCTYPE svg PUBLIC "-//W3C//DTD SVG 1.1//EN"
 "http://www.w3.org/Graphics/SVG/1.1/DTD/svg11.dtd">
<!-- Generated by graphviz version 2.43.0 (0)
 -->
<!-- Title: MOLE MATLAB Functions Pages: 1 -->
<svg width="822pt" height="910pt"
 viewBox="0.00 0.00 822.00 909.64" xmlns="http://www.w3.org/2000/svg" xmlns:xlink="http://www.w3.org/1999/xlink">
<g id="graph0" class="graph" transform="scale(1 1) rotate(0) translate(4 905.64)">
<title>MOLE MATLAB Functions</title>
<polygon fill="white" stroke="transparent" points="-4,4 -4,-905.64 818,-905.64 818,4 -4,4"/>
<g id="clust1" class="cluster">
<title>cluster_operators</title>
<polygon fill="#f5f5f5" stroke="#f5f5f5" points="248.5,-100.64 248.5,-353.64 530,-353.64 530,-100.64 248.5,-100.64"/>
<text text-anchor="middle" x="389.25" y="-338.44" font-family="Arial" font-size="14.00">Core Operators</text>
</g>
<g id="clust2" class="cluster">
<title>cluster_diff_ops</title>
</g>
<g id="clust3" class="cluster">
<title>cluster_variants</title>
<polygon fill="#f5f5f5" stroke="#f5f5f5" points="687,-168.64 687,-297.64 810,-297.64 810,-168.64 687,-168.64"/>
<text text-anchor="middle" x="748.5" y="-282.44" font-family="Arial" font-size="14.00">Operator Variants</text>
</g>
<g id="clust4" class="cluster">
<title>cluster_dimensions</title>
<polygon fill="#f5f5f5" stroke="#f5f5f5" points="549,-114.64 549,-312.64 666,-312.64 666,-114.64 549,-114.64"/>
<text text-anchor="middle" x="607.5" y="-297.44" font-family="Arial" font-size="14.00">Dimensional</text>
<text text-anchor="middle" x="607.5" y="-282.44" font-family="Arial" font-size="14.00">Implementations</text>
</g>
<g id="clust5" class="cluster">
<title>cluster_support</title>
<polygon fill="#f5f5f5" stroke="#f5f5f5" points="13.5,-361.64 13.5,-598.64 359,-598.64 359,-361.64 13.5,-361.64"/>
<text text-anchor="middle" x="186.25" y="-583.44" font-family="Arial" font-size="14.00">Supporting Components</text>
</g>
<g id="clust14" class="cluster">
<title>cluster_legend</title>
<polygon fill="#f5f5f5" stroke="#f5f5f5" points="8,-606.64 8,-893.64 391,-893.64 391,-606.64 8,-606.64"/>
<text text-anchor="middle" x="199.5" y="-881.64" font-family="Arial" font-size="10.00">Legend</text>
</g>
<!-- DifferentialOperators -->
<g id="node1" class="node">
<title>DifferentialOperators</title>
<polygon fill="#d5e8d4" stroke="black" points="347.5,-322.64 256.5,-322.64 256.5,-286.64 347.5,-286.64 347.5,-322.64"/>
<text text-anchor="middle" x="302" y="-307.64" font-family="Arial" font-size="10.00">Differential</text>
<text text-anchor="middle" x="302" y="-296.64" font-family="Arial" font-size="10.00">Operators</text>
</g>
<!-- Grad -->
<g id="node2" class="node">
<title>Grad</title>
<polygon fill="#d5e8d4" stroke="black" points="507.5,-260.64 426.5,-260.64 426.5,-224.64 507.5,-224.64 507.5,-260.64"/>
<text text-anchor="middle" x="467" y="-240.14" font-family="Arial" font-size="10.00">Gradient</text>
</g>
<!-- DifferentialOperators&#45;&gt;Grad -->
<g id="edge1" class="edge">
<title>DifferentialOperators&#45;&gt;Grad</title>
<path fill="none" stroke="#0000aa" stroke-dasharray="1,5" d="M347.54,-287.7C368.97,-279.55 394.73,-269.75 416.74,-261.38"/>
<polygon fill="#0000aa" stroke="#0000aa" points="418.14,-264.59 426.24,-257.76 415.65,-258.05 418.14,-264.59"/>
</g>
<!-- Div -->
<g id="node3" class="node">
<title>Div</title>
<polygon fill="#d5e8d4" stroke="black" points="514,-206.64 420,-206.64 420,-170.64 514,-170.64 514,-206.64"/>
<text text-anchor="middle" x="467" y="-186.14" font-family="Arial" font-size="10.00">Divergence</text>
</g>
<!-- DifferentialOperators&#45;&gt;Div -->
<g id="edge2" class="edge">
<title>DifferentialOperators&#45;&gt;Div</title>
<path fill="none" stroke="#0000aa" stroke-dasharray="1,5" d="M322.47,-286.5C343.52,-267.44 378.56,-237.27 412,-215.64 414.12,-214.27 416.31,-212.92 418.56,-211.6"/>
<polygon fill="#0000aa" stroke="#0000aa" points="420.36,-214.6 427.36,-206.65 416.93,-208.5 420.36,-214.6"/>
</g>
<!-- Lap -->
<g id="node4" class="node">
<title>Lap</title>
<polygon fill="#d5e8d4" stroke="black" points="510,-152.64 424,-152.64 424,-116.64 510,-116.64 510,-152.64"/>
<text text-anchor="middle" x="467" y="-132.14" font-family="Arial" font-size="10.00">Laplacian</text>
</g>
<!-- DifferentialOperators&#45;&gt;Lap -->
<g id="edge3" class="edge">
<title>DifferentialOperators&#45;&gt;Lap</title>
<path fill="none" stroke="#0000aa" stroke-dasharray="1,5" d="M313.24,-286.24C330.4,-256.75 367.52,-198.47 412,-161.64 413.33,-160.54 414.72,-159.47 416.14,-158.42"/>
<polygon fill="#0000aa" stroke="#0000aa" points="418.25,-161.23 424.66,-152.8 414.39,-155.39 418.25,-161.23"/>
</g>
<!-- Curl -->
<g id="node5" class="node">
<title>Curl</title>
<polygon fill="#d5e8d4" stroke="black" points="498.5,-314.64 435.5,-314.64 435.5,-278.64 498.5,-278.64 498.5,-314.64"/>
<text text-anchor="middle" x="467" y="-294.14" font-family="Arial" font-size="10.00">Curl</text>
</g>
<!-- DifferentialOperators&#45;&gt;Curl -->
<g id="edge4" class="edge">
<title>DifferentialOperators&#45;&gt;Curl</title>
<path fill="none" stroke="#0000aa" stroke-dasharray="1,5" d="M347.54,-302.46C371.84,-301.26 401.71,-299.8 425.38,-298.64"/>
<polygon fill="#0000aa" stroke="#0000aa" points="425.62,-302.13 435.44,-298.14 425.28,-295.14 425.62,-302.13"/>
</g>
<!-- D1 -->
<g id="node8" class="node">
<title>D1</title>
<polygon fill="#dae8fc" stroke="black" points="636,-158.64 579,-158.64 579,-122.64 636,-122.64 636,-158.64"/>
<text text-anchor="middle" x="607.5" y="-138.14" font-family="Arial" font-size="10.00">1D</text>
</g>
<!-- Grad&#45;&gt;D1 -->
<g id="edge5" class="edge">
<title>Grad&#45;&gt;D1</title>
<path fill="none" stroke="#006600" stroke-dasharray="5,2" d="M507.62,-232.94C516.3,-228.97 524.52,-223.41 530,-215.64 545.02,-194.34 518.95,-116.43 538,-98.64 552.46,-85.14 571.91,-99.48 586.4,-114.96"/>
<polygon fill="#006600" stroke="#006600" points="583.83,-117.34 593.06,-122.54 589.08,-112.72 583.83,-117.34"/>
</g>
<!-- D2 -->
<g id="node9" class="node">
<title>D2</title>
<polygon fill="#dae8fc" stroke="black" points="636,-266.64 579,-266.64 579,-230.64 636,-230.64 636,-266.64"/>
<text text-anchor="middle" x="607.5" y="-246.14" font-family="Arial" font-size="10.00">2D</text>
</g>
<!-- Grad&#45;&gt;D2 -->
<g id="edge6" class="edge">
<title>Grad&#45;&gt;D2</title>
<path fill="none" stroke="#006600" stroke-dasharray="5,2" d="M507.8,-252.99C516.25,-256.92 524.33,-262.3 530,-269.64 544.03,-287.8 520.56,-305.73 538,-320.64 559.7,-339.2 581.97,-303.68 595,-276.24"/>
<polygon fill="#006600" stroke="#006600" points="598.26,-277.52 599.21,-266.97 591.89,-274.63 598.26,-277.52"/>
</g>
<!-- D3 -->
<g id="node10" class="node">
<title>D3</title>
<polygon fill="#dae8fc" stroke="black" points="636,-212.64 579,-212.64 579,-176.64 636,-176.64 636,-212.64"/>
<text text-anchor="middle" x="607.5" y="-192.14" font-family="Arial" font-size="10.00">3D</text>
</g>
<!-- Grad&#45;&gt;D3 -->
<g id="edge7" class="edge">
<title>Grad&#45;&gt;D3</title>
<path fill="none" stroke="#006600" stroke-dasharray="5,2" d="M507.69,-228.89C527.02,-222.19 550.14,-214.18 569.15,-207.59"/>
<polygon fill="#006600" stroke="#006600" points="570.37,-210.87 578.67,-204.29 568.08,-204.25 570.37,-210.87"/>
</g>
<!-- Div&#45;&gt;D1 -->
<g id="edge8" class="edge">
<title>Div&#45;&gt;D1</title>
<path fill="none" stroke="#006600" stroke-dasharray="5,2" d="M514.13,-175.44C520.28,-171.87 525.88,-167.35 530,-161.64 541.49,-145.72 523.5,-86.88 538,-73.64 558.02,-55.36 580.31,-87.51 593.87,-113.29"/>
<polygon fill="#006600" stroke="#006600" points="590.83,-115.04 598.45,-122.4 597.08,-111.89 590.83,-115.04"/>
</g>
<!-- Div&#45;&gt;D2 -->
<g id="edge9" class="edge">
<title>Div&#45;&gt;D2</title>
<path fill="none" stroke="#006600" stroke-dasharray="5,2" d="M514.08,-201.88C520.24,-205.44 525.85,-209.95 530,-215.64 540.52,-230.08 524.75,-283.65 538,-295.64 553.67,-309.83 573.85,-292.37 588.24,-274.85"/>
<polygon fill="#006600" stroke="#006600" points="591.04,-276.95 594.4,-266.9 585.51,-272.66 591.04,-276.95"/>
</g>
<!-- Div&#45;&gt;D3 -->
<g id="edge10" class="edge">
<title>Div&#45;&gt;D3</title>
<path fill="none" stroke="#006600" stroke-dasharray="5,2" d="M514.12,-190.64C531.84,-191.41 551.85,-192.27 568.71,-193"/>
<polygon fill="#006600" stroke="#006600" points="568.6,-196.5 578.74,-193.44 568.9,-189.51 568.6,-196.5"/>
</g>
<!-- Lap&#45;&gt;D1 -->
<g id="edge11" class="edge">
<title>Lap&#45;&gt;D1</title>
<path fill="none" stroke="#006600" stroke-dasharray="5,2" d="M473.49,-116.18C483.46,-86.28 506.53,-32.19 539,-48.64 565.48,-62.06 584.08,-91.28 594.96,-113.22"/>
<polygon fill="#006600" stroke="#006600" points="591.86,-114.84 599.28,-122.4 598.19,-111.86 591.86,-114.84"/>
</g>
<!-- Lap&#45;&gt;D2 -->
<g id="edge12" class="edge">
<title>Lap&#45;&gt;D2</title>
<path fill="none" stroke="#006600" stroke-dasharray="5,2" d="M510.15,-145.59C517.87,-149.45 525.04,-154.65 530,-161.64 544.05,-181.46 520.21,-254.11 538,-270.64 547.79,-279.74 561.37,-277.39 573.85,-271.57"/>
<polygon fill="#006600" stroke="#006600" points="575.53,-274.64 582.68,-266.83 572.22,-268.47 575.53,-274.64"/>
</g>
<!-- Lap&#45;&gt;D3 -->
<g id="edge13" class="edge">
<title>Lap&#45;&gt;D3</title>
<path fill="none" stroke="#006600" stroke-dasharray="5,2" d="M509.55,-152.64C528.69,-160.93 551.2,-170.69 569.71,-178.71"/>
<polygon fill="#006600" stroke="#006600" points="568.42,-181.96 578.99,-182.72 571.2,-175.54 568.42,-181.96"/>
</g>
<!-- Curl&#45;&gt;D2 -->
<g id="edge14" class="edge">
<title>Curl&#45;&gt;D2</title>
<path fill="none" stroke="#006600" stroke-dasharray="5,2" d="M483.89,-314.69C498.16,-328.6 519.76,-344 539,-334.64 564.01,-322.48 582.51,-296.05 593.75,-275.69"/>
<polygon fill="#006600" stroke="#006600" points="596.86,-277.31 598.41,-266.83 590.66,-274.05 596.86,-277.31"/>
</g>
<!-- NonUniform -->
<g id="node6" class="node">
<title>NonUniform</title>
<polygon fill="#ffe6cc" stroke="black" points="798,-266.64 698,-266.64 698,-230.64 798,-230.64 798,-266.64"/>
<text text-anchor="middle" x="748" y="-246.14" font-family="Arial" font-size="10.00">Non&#45;Uniform</text>
</g>
<!-- Curvilinear -->
<g id="node7" class="node">
<title>Curvilinear</title>
<polygon fill="#ffe6cc" stroke="black" points="793.5,-212.64 702.5,-212.64 702.5,-176.64 793.5,-176.64 793.5,-212.64"/>
<text text-anchor="middle" x="748" y="-192.14" font-family="Arial" font-size="10.00">Curvilinear</text>
</g>
<!-- D2&#45;&gt;NonUniform -->
<g id="edge15" class="edge">
<title>D2&#45;&gt;NonUniform</title>
<path fill="none" stroke="#aa6600" d="M646.64,-248.64C659.35,-248.64 673.83,-248.64 687.76,-248.64"/>
<polygon fill="#aa6600" stroke="#aa6600" points="646.19,-245.14 636.19,-248.64 646.19,-252.14 646.19,-245.14"/>
<polygon fill="#aa6600" stroke="#aa6600" points="687.77,-252.14 697.77,-248.64 687.77,-245.14 687.77,-252.14"/>
</g>
<!-- D2&#45;&gt;Curvilinear -->
<g id="edge17" class="edge">
<title>D2&#45;&gt;Curvilinear</title>
<path fill="none" stroke="#aa6600" d="M645.52,-234.21C660.02,-228.56 676.94,-221.96 692.77,-215.79"/>
<polygon fill="#aa6600" stroke="#aa6600" points="644.24,-230.95 636.19,-237.84 646.78,-237.47 644.24,-230.95"/>
<polygon fill="#aa6600" stroke="#aa6600" points="694.41,-218.9 702.45,-212.01 691.86,-212.38 694.41,-218.9"/>
</g>
<!-- D3&#45;&gt;NonUniform -->
<g id="edge16" class="edge">
<title>D3&#45;&gt;NonUniform</title>
<path fill="none" stroke="#aa6600" d="M645.75,-209.17C659.78,-214.64 676.06,-220.98 691.4,-226.97"/>
<polygon fill="#aa6600" stroke="#aa6600" points="646.78,-205.81 636.19,-205.44 644.24,-212.33 646.78,-205.81"/>
<polygon fill="#aa6600" stroke="#aa6600" points="690.22,-230.26 700.81,-230.63 692.77,-223.74 690.22,-230.26"/>
</g>
<!-- D3&#45;&gt;Curvilinear -->
<g id="edge18" class="edge">
<title>D3&#45;&gt;Curvilinear</title>
<path fill="none" stroke="#aa6600" d="M646.49,-194.64C660.56,-194.64 676.8,-194.64 692.07,-194.64"/>
<polygon fill="#aa6600" stroke="#aa6600" points="646.19,-191.14 636.19,-194.64 646.19,-198.14 646.19,-191.14"/>
<polygon fill="#aa6600" stroke="#aa6600" points="692.45,-198.14 702.45,-194.64 692.45,-191.14 692.45,-198.14"/>
</g>
<!-- InterpolationOperators -->
<g id="node11" class="node">
<title>InterpolationOperators</title>
<polygon fill="#e1d5e7" stroke="black" points="351,-427.64 253,-427.64 253,-391.64 351,-391.64 351,-427.64"/>
<text text-anchor="middle" x="302" y="-412.64" font-family="Arial" font-size="10.00">Interpolation</text>
<text text-anchor="middle" x="302" y="-401.64" font-family="Arial" font-size="10.00">Operators</text>
</g>
<!-- InterpolationOperators&#45;&gt;DifferentialOperators -->
<g id="edge19" class="edge">
<title>InterpolationOperators&#45;&gt;DifferentialOperators</title>
<path fill="none" stroke="#990000" d="M302,-381.33C302,-366.32 302,-347.94 302,-332.94"/>
<polygon fill="#990000" stroke="#990000" points="298.5,-381.56 302,-391.56 305.5,-381.56 298.5,-381.56"/>
<polygon fill="#990000" stroke="#990000" points="305.5,-332.93 302,-322.93 298.5,-332.93 305.5,-332.93"/>
<text text-anchor="middle" x="294" y="-354.94" font-family="Arial" font-size="9.00">supports</text>
</g>
<!-- InterpolationOperators&#45;&gt;D1 -->
<g id="edge25" class="edge">
<title>InterpolationOperators&#45;&gt;D1</title>
<path fill="none" stroke="#6600cc" stroke-dasharray="1,5" d="M351.23,-398.3C410.89,-383.24 507.37,-355.22 530,-326.64 574.17,-270.84 507.34,-225.34 549,-167.64 554.15,-160.51 561.68,-155.2 569.59,-151.27"/>
<polygon fill="#6600cc" stroke="#6600cc" points="571.14,-154.42 578.95,-147.26 568.38,-147.98 571.14,-154.42"/>
</g>
<!-- InterpolationOperators&#45;&gt;D2 -->
<g id="edge26" class="edge">
<title>InterpolationOperators&#45;&gt;D2</title>
<path fill="none" stroke="#6600cc" stroke-dasharray="1,5" d="M349.33,-427.65C398.37,-443.47 475.98,-458.99 530,-423.64 580.05,-390.9 597.55,-317.41 603.52,-276.86"/>
<polygon fill="#6600cc" stroke="#6600cc" points="607.01,-277.2 604.86,-266.83 600.07,-276.28 607.01,-277.2"/>
</g>
<!-- InterpolationOperators&#45;&gt;D3 -->
<g id="edge27" class="edge">
<title>InterpolationOperators&#45;&gt;D3</title>
<path fill="none" stroke="#6600cc" stroke-dasharray="1,5" d="M351.17,-411.31C410.26,-412.25 505.6,-409.79 530,-385.64 556.07,-359.83 527.58,-251.43 549,-221.64 554.14,-214.5 561.66,-209.19 569.58,-205.26"/>
<polygon fill="#6600cc" stroke="#6600cc" points="571.12,-208.4 578.94,-201.25 568.37,-201.97 571.12,-208.4"/>
</g>
<!-- BoundaryConditions -->
<g id="node12" class="node">
<title>BoundaryConditions</title>
<polygon fill="#e1d5e7" stroke="black" points="122,-405.64 31,-405.64 31,-369.64 122,-369.64 122,-405.64"/>
<text text-anchor="middle" x="76.5" y="-390.64" font-family="Arial" font-size="10.00">Boundary</text>
<text text-anchor="middle" x="76.5" y="-379.64" font-family="Arial" font-size="10.00">Conditions</text>
</g>
<!-- BoundaryConditions&#45;&gt;DifferentialOperators -->
<g id="edge20" class="edge">
<title>BoundaryConditions&#45;&gt;DifferentialOperators</title>
<path fill="none" stroke="#990000" d="M131.63,-367.54C166.57,-354.56 211.86,-337.74 246.82,-324.76"/>
<polygon fill="#990000" stroke="#990000" points="130.35,-364.28 122.19,-371.05 132.78,-370.85 130.35,-364.28"/>
<polygon fill="#990000" stroke="#990000" points="248.23,-327.97 256.39,-321.21 245.79,-321.41 248.23,-327.97"/>
<text text-anchor="middle" x="179" y="-360.44" font-family="Arial" font-size="9.00">enhances</text>
</g>
<!-- BoundaryConditions&#45;&gt;D1 -->
<g id="edge28" class="edge">
<title>BoundaryConditions&#45;&gt;D1</title>
<path fill="none" stroke="#6600cc" stroke-dasharray="1,5" d="M79.73,-369.64C87.54,-309.1 115.35,-114.01 155,-66.64 240.63,35.68 424.97,-1.61 530,-37.64 563.63,-49.18 585.06,-86.37 596.43,-112.74"/>
<polygon fill="#6600cc" stroke="#6600cc" points="593.29,-114.3 600.3,-122.24 599.77,-111.66 593.29,-114.3"/>
</g>
<!-- BoundaryConditions&#45;&gt;D2 -->
<g id="edge29" class="edge">
<title>BoundaryConditions&#45;&gt;D2</title>
<path fill="none" stroke="#6600cc" stroke-dasharray="1,5" d="M79.95,-369.27C88.18,-315.65 120.31,-159.26 221,-96.64 279.33,-60.37 479.1,-58.52 530,-104.64 534.88,-109.06 545.03,-216.39 549,-221.64 554.25,-228.6 561.74,-233.84 569.59,-237.75"/>
<polygon fill="#6600cc" stroke="#6600cc" points="568.29,-241 578.86,-241.76 571.07,-234.58 568.29,-241"/>
</g>
<!-- BoundaryConditions&#45;&gt;D3 -->
<g id="edge30" class="edge">
<title>BoundaryConditions&#45;&gt;D3</title>
<path fill="none" stroke="#6600cc" stroke-dasharray="1,5" d="M77.98,-369.47C80.13,-321.48 91.79,-189.3 155,-105.64 175.68,-78.28 187.96,-74.87 221,-65.64 287.13,-47.17 477.32,-22.6 530,-66.64 565.04,-95.94 521.04,-131.53 549,-167.64 554.34,-174.54 561.86,-179.75 569.72,-183.66"/>
<polygon fill="#6600cc" stroke="#6600cc" points="568.41,-186.9 578.97,-187.67 571.19,-180.48 568.41,-186.9"/>
</g>
<!-- GridTransformation -->
<g id="node13" class="node">
<title>GridTransformation</title>
<polygon fill="#e1d5e7" stroke="black" points="131.5,-513.64 21.5,-513.64 21.5,-477.64 131.5,-477.64 131.5,-513.64"/>
<text text-anchor="middle" x="76.5" y="-498.64" font-family="Arial" font-size="10.00">Grid</text>
<text text-anchor="middle" x="76.5" y="-487.64" font-family="Arial" font-size="10.00">Transformation</text>
</g>
<!-- GridTransformation&#45;&gt;DifferentialOperators -->
<g id="edge21" class="edge">
<title>GridTransformation&#45;&gt;DifferentialOperators</title>
<path fill="none" stroke="#990000" d="M120.37,-477.64C126.07,-474.83 131.75,-471.8 137,-468.64 168.76,-449.52 182,-448.19 203,-417.64 218.77,-394.7 204.41,-380 221,-357.64 229.63,-346.02 241.62,-336.18 253.69,-328.25"/>
<polygon fill="#990000" stroke="#990000" points="255.8,-331.06 262.45,-322.82 252.11,-325.11 255.8,-331.06"/>
<text text-anchor="middle" x="179" y="-460.44" font-family="Arial" font-size="9.00">enables</text>
</g>
<!-- WeightFunctions -->
<g id="node14" class="node">
<title>WeightFunctions</title>
<polygon fill="#e1d5e7" stroke="black" points="120,-567.64 33,-567.64 33,-531.64 120,-531.64 120,-567.64"/>
<text text-anchor="middle" x="76.5" y="-552.64" font-family="Arial" font-size="10.00">Weight</text>
<text text-anchor="middle" x="76.5" y="-541.64" font-family="Arial" font-size="10.00">Functions</text>
</g>
<!-- WeightFunctions&#45;&gt;DifferentialOperators -->
<g id="edge22" class="edge">
<title>WeightFunctions&#45;&gt;DifferentialOperators</title>
<path fill="none" stroke="#990000" d="M120.14,-532.58C125.99,-529.59 131.78,-526.26 137,-522.64 146.3,-516.2 146.3,-511.88 155,-504.64 174.9,-488.09 189.19,-493.54 203,-471.64 230.36,-428.25 193.27,-400.8 221,-357.64 228.61,-345.8 239.91,-336 251.64,-328.19"/>
<polygon fill="#990000" stroke="#990000" points="253.57,-331.11 260.21,-322.85 249.87,-325.17 253.57,-331.11"/>
<text text-anchor="middle" x="179" y="-507.44" font-family="Arial" font-size="9.00">configures</text>
</g>
<!-- WeightFunctions&#45;&gt;InterpolationOperators -->
<g id="edge23" class="edge">
<title>WeightFunctions&#45;&gt;InterpolationOperators</title>
<path fill="none" stroke="#990000" d="M120.01,-545.5C145.52,-541.53 177.79,-533.77 203,-518.64 237.55,-497.92 266.85,-461.13 284.18,-436.08"/>
<polygon fill="#990000" stroke="#990000" points="287.1,-438 289.8,-427.76 281.3,-434.09 287.1,-438"/>
<text text-anchor="middle" x="179" y="-539.44" font-family="Arial" font-size="9.00">configures</text>
</g>
<!-- MimeticOperators -->
<g id="node15" class="node">
<title>MimeticOperators</title>
<polygon fill="#e1d5e7" stroke="black" points="120,-459.64 33,-459.64 33,-423.64 120,-423.64 120,-459.64"/>
<text text-anchor="middle" x="76.5" y="-444.64" font-family="Arial" font-size="10.00">Mimetic</text>
<text text-anchor="middle" x="76.5" y="-433.64" font-family="Arial" font-size="10.00">Operators</text>
</g>
<!-- MimeticOperators&#45;&gt;DifferentialOperators -->
<g id="edge24" class="edge">
<title>MimeticOperators&#45;&gt;DifferentialOperators</title>
<path fill="none" stroke="#990000" d="M119.51,-423.55C125.45,-420.71 131.43,-417.7 137,-414.64 167.7,-397.8 174.49,-391.96 203,-371.64 211.25,-365.76 212.77,-363.56 221,-357.64 234.76,-347.75 250.22,-337.36 263.85,-328.41"/>
<polygon fill="#990000" stroke="#990000" points="266.04,-331.16 272.51,-322.77 262.22,-325.3 266.04,-331.16"/>
<text text-anchor="middle" x="179" y="-406.44" font-family="Arial" font-size="9.00">implements</text>
</g>
<!-- leg_title -->
<g id="node16" class="node">
<title>leg_title</title>
<text text-anchor="middle" x="76.5" y="-738.44" font-family="Arial" font-size="9.00">Connection Types:</text>
</g>
<!-- leg_core -->
<g id="node17" class="node">
<title>leg_core</title>
<text text-anchor="middle" x="302" y="-684.44" font-family="Arial" font-size="9.00">Core Relationship</text>
</g>
<!-- leg_title&#45;&gt;leg_core -->
<g id="edge31" class="edge">
<title>leg_title&#45;&gt;leg_core</title>
<path fill="none" stroke="#0000aa" stroke-dasharray="1,5" d="M137.1,-726.24C166.38,-719.17 201.81,-710.61 232.23,-703.26"/>
<polygon fill="#0000aa" stroke="#0000aa" points="233.44,-706.57 242.34,-700.82 231.8,-699.76 233.44,-706.57"/>
</g>
<!-- leg_dim -->
<g id="node18" class="node">
<title>leg_dim</title>
<text text-anchor="middle" x="302" y="-738.44" font-family="Arial" font-size="9.00">Dimensional Implementation</text>
</g>
<!-- leg_title&#45;&gt;leg_dim -->
<g id="edge32" class="edge">
<title>leg_title&#45;&gt;leg_dim</title>
<path fill="none" stroke="#006600" stroke-dasharray="5,2" d="M137.1,-740.64C159.72,-740.64 186.01,-740.64 210.82,-740.64"/>
<polygon fill="#006600" stroke="#006600" points="210.98,-744.14 220.98,-740.64 210.98,-737.14 210.98,-744.14"/>
</g>
<!-- leg_variant -->
<g id="node19" class="node">
<title>leg_variant</title>
<text text-anchor="middle" x="302" y="-792.44" font-family="Arial" font-size="9.00">Variant Relationship</text>
</g>
<!-- leg_title&#45;&gt;leg_variant -->
<g id="edge33" class="edge">
<title>leg_title&#45;&gt;leg_variant</title>
<path fill="none" stroke="#aa6600" d="M137.1,-755.04C165.22,-761.84 199.01,-770 228.59,-777.15"/>
<polygon fill="#aa6600" stroke="#aa6600" points="227.9,-780.58 238.44,-779.53 229.54,-773.78 227.9,-780.58"/>
</g>
<!-- leg_support -->
<g id="node20" class="node">
<title>leg_support</title>
<text text-anchor="middle" x="302" y="-846.44" font-family="Arial" font-size="9.00">Support Relationship</text>
</g>
<!-- leg_title&#45;&gt;leg_support -->
<g id="edge34" class="edge">
<title>leg_title&#45;&gt;leg_support</title>
<path fill="none" stroke="#990000" d="M105.8,-758.73C134.16,-776.35 179.46,-803.11 221,-821.64 225.1,-823.47 229.37,-825.25 233.7,-826.96"/>
<polygon fill="#990000" stroke="#990000" points="232.66,-830.31 243.25,-830.61 235.15,-823.77 232.66,-830.31"/>
</g>
<!-- leg_dim_support -->
<g id="node21" class="node">
<title>leg_dim_support</title>
<text text-anchor="middle" x="302" y="-630.44" font-family="Arial" font-size="9.00">Dimensional Support</text>
</g>
<!-- leg_title&#45;&gt;leg_dim_support -->
<g id="edge35" class="edge">
<title>leg_title&#45;&gt;leg_dim_support</title>
<path fill="none" stroke="#6600cc" stroke-dasharray="1,5" d="M105.8,-722.55C134.16,-704.93 179.46,-678.18 221,-659.64 225.1,-657.81 229.37,-656.03 233.7,-654.32"/>
<polygon fill="#6600cc" stroke="#6600cc" points="235.15,-657.51 243.25,-650.68 232.66,-650.97 235.15,-657.51"/>
</g>
</g>
</svg>
