<?xml version="1.0" encoding="UTF-8" standalone="no"?>
<!DOCTYPE svg PUBLIC "-//W3C//DTD SVG 1.1//EN"
 "http://www.w3.org/Graphics/SVG/1.1/DTD/svg11.dtd">
<!-- Generated by graphviz version 2.43.0 (0)
 -->
<!-- Title: MOLE MATLAB Functions Pages: 1 -->
<svg width="659pt" height="631pt"
 viewBox="0.00 0.00 659.00 630.97" xmlns="http://www.w3.org/2000/svg" xmlns:xlink="http://www.w3.org/1999/xlink">
<g id="graph0" class="graph" transform="scale(1 1) rotate(0) translate(4 626.97)">
<title>MOLE MATLAB Functions</title>
<polygon fill="white" stroke="transparent" points="-4,4 -4,-626.97 655,-626.97 655,4 -4,4"/>
<g id="clust1" class="cluster">
<title>cluster_operators</title>
<polygon fill="none" stroke="black" stroke-dasharray="5,2" points="177.5,-116.97 177.5,-369.97 371,-369.97 371,-116.97 177.5,-116.97"/>
<text text-anchor="middle" x="274.25" y="-354.77" font-family="Arial" font-size="14.00">Core Operators</text>
</g>
<g id="clust2" class="cluster">
<title>cluster_diff_ops</title>
</g>
<g id="clust3" class="cluster">
<title>cluster_variants</title>
<polygon fill="none" stroke="black" stroke-dasharray="5,2" points="528,-177.97 528,-306.97 651,-306.97 651,-177.97 528,-177.97"/>
<text text-anchor="middle" x="589.5" y="-291.77" font-family="Arial" font-size="14.00">Operator Variants</text>
</g>
<g id="clust4" class="cluster">
<title>cluster_dimensions</title>
<polygon fill="none" stroke="black" stroke-dasharray="5,2" points="390,-142.97 390,-340.97 507,-340.97 507,-142.97 390,-142.97"/>
<text text-anchor="middle" x="448.5" y="-325.77" font-family="Arial" font-size="14.00">Dimensional</text>
<text text-anchor="middle" x="448.5" y="-310.77" font-family="Arial" font-size="14.00">Implementations</text>
</g>
<g id="clust5" class="cluster">
<title>cluster_support</title>
<polygon fill="none" stroke="black" stroke-dasharray="5,2" points="8,-377.97 8,-614.97 260,-614.97 260,-377.97 8,-377.97"/>
<text text-anchor="middle" x="134" y="-599.77" font-family="Arial" font-size="14.00">Supporting Components</text>
</g>
<!-- DifferentialOperators -->
<g id="node1" class="node">
<title>DifferentialOperators</title>
<polygon fill="white" stroke="black" points="248.5,-338.97 185.5,-338.97 185.5,-302.97 248.5,-302.97 248.5,-338.97"/>
<text text-anchor="middle" x="217" y="-323.97" font-family="Arial" font-size="10.00">Differential</text>
<text text-anchor="middle" x="217" y="-312.97" font-family="Arial" font-size="10.00">Operators</text>
</g>
<!-- Grad -->
<g id="node2" class="node">
<title>Grad</title>
<polygon fill="white" stroke="black" points="349,-276.97 295,-276.97 295,-240.97 349,-240.97 349,-276.97"/>
<text text-anchor="middle" x="322" y="-256.47" font-family="Arial" font-size="10.00">Gradient</text>
</g>
<!-- DifferentialOperators&#45;&gt;Grad -->
<g id="edge1" class="edge">
<title>DifferentialOperators&#45;&gt;Grad</title>
<path fill="none" stroke="black" stroke-dasharray="1,5" d="M248.07,-302.87C260.01,-295.68 273.83,-287.36 286.21,-279.91"/>
<polygon fill="black" stroke="black" points="288.15,-282.82 294.91,-274.67 284.54,-276.83 288.15,-282.82"/>
</g>
<!-- Div -->
<g id="node3" class="node">
<title>Div</title>
<polygon fill="white" stroke="black" points="355,-222.97 289,-222.97 289,-186.97 355,-186.97 355,-222.97"/>
<text text-anchor="middle" x="322" y="-202.47" font-family="Arial" font-size="10.00">Divergence</text>
</g>
<!-- DifferentialOperators&#45;&gt;Div -->
<g id="edge2" class="edge">
<title>DifferentialOperators&#45;&gt;Div</title>
<path fill="none" stroke="black" stroke-dasharray="1,5" d="M228.17,-302.81C239.43,-283.72 258.94,-253.54 281,-231.97 281.78,-231.21 282.58,-230.45 283.4,-229.71"/>
<polygon fill="black" stroke="black" points="285.72,-232.33 291.21,-223.27 281.27,-226.93 285.72,-232.33"/>
</g>
<!-- Lap -->
<g id="node4" class="node">
<title>Lap</title>
<polygon fill="white" stroke="black" points="351,-168.97 293,-168.97 293,-132.97 351,-132.97 351,-168.97"/>
<text text-anchor="middle" x="322" y="-148.47" font-family="Arial" font-size="10.00">Laplacian</text>
</g>
<!-- DifferentialOperators&#45;&gt;Lap -->
<g id="edge3" class="edge">
<title>DifferentialOperators&#45;&gt;Lap</title>
<path fill="none" stroke="black" stroke-dasharray="1,5" d="M222.42,-302.96C230.25,-274.01 248.82,-216.48 281,-177.97 282.25,-176.47 283.6,-175.03 285.03,-173.63"/>
<polygon fill="black" stroke="black" points="287.32,-176.28 292.64,-167.11 282.77,-170.96 287.32,-176.28"/>
</g>
<!-- Curl -->
<g id="node5" class="node">
<title>Curl</title>
<polygon fill="white" stroke="black" points="349,-330.97 295,-330.97 295,-294.97 349,-294.97 349,-330.97"/>
<text text-anchor="middle" x="322" y="-310.47" font-family="Arial" font-size="10.00">Curl</text>
</g>
<!-- DifferentialOperators&#45;&gt;Curl -->
<g id="edge4" class="edge">
<title>DifferentialOperators&#45;&gt;Curl</title>
<path fill="none" stroke="black" stroke-dasharray="1,5" d="M248.62,-318.59C260,-317.7 273.01,-316.69 284.83,-315.78"/>
<polygon fill="black" stroke="black" points="285.15,-319.26 294.85,-315 284.61,-312.28 285.15,-319.26"/>
</g>
<!-- D1 -->
<g id="node8" class="node">
<title>D1</title>
<polygon fill="white" stroke="black" points="475,-240.97 421,-240.97 421,-204.97 475,-204.97 475,-240.97"/>
<text text-anchor="middle" x="448" y="-220.47" font-family="Arial" font-size="10.00">1D</text>
</g>
<!-- Grad&#45;&gt;D1 -->
<g id="edge5" class="edge">
<title>Grad&#45;&gt;D1</title>
<path fill="none" stroke="black" stroke-dasharray="5,2" d="M349,-254.27C358.79,-252.3 369.98,-249.8 380,-246.97 390.25,-244.07 401.2,-240.39 411.22,-236.8"/>
<polygon fill="black" stroke="black" points="412.67,-240 420.86,-233.27 410.26,-233.42 412.67,-240"/>
</g>
<!-- D2 -->
<g id="node9" class="node">
<title>D2</title>
<polygon fill="white" stroke="black" points="475,-294.97 421,-294.97 421,-258.97 475,-258.97 475,-294.97"/>
<text text-anchor="middle" x="448" y="-274.47" font-family="Arial" font-size="10.00">2D</text>
</g>
<!-- Grad&#45;&gt;D2 -->
<g id="edge6" class="edge">
<title>Grad&#45;&gt;D2</title>
<path fill="none" stroke="black" stroke-dasharray="5,2" d="M349.26,-271.09C356.73,-275.21 364.57,-280.25 371,-285.97 375.52,-289.99 373.61,-294.22 379,-296.97 389.07,-302.1 400.68,-300.97 411.41,-297.41"/>
<polygon fill="black" stroke="black" points="412.98,-300.55 420.96,-293.58 410.37,-294.06 412.98,-300.55"/>
</g>
<!-- D3 -->
<g id="node10" class="node">
<title>D3</title>
<polygon fill="white" stroke="black" points="475,-186.97 421,-186.97 421,-150.97 475,-150.97 475,-186.97"/>
<text text-anchor="middle" x="448" y="-166.47" font-family="Arial" font-size="10.00">3D</text>
</g>
<!-- Grad&#45;&gt;D3 -->
<g id="edge7" class="edge">
<title>Grad&#45;&gt;D3</title>
<path fill="none" stroke="black" stroke-dasharray="5,2" d="M349.3,-247.68C356.94,-243.53 364.86,-238.27 371,-231.97 383.62,-219 376.93,-208.48 390,-195.97 396.13,-190.1 403.77,-185.31 411.45,-181.48"/>
<polygon fill="black" stroke="black" points="413.06,-184.59 420.73,-177.28 410.17,-178.22 413.06,-184.59"/>
</g>
<!-- Div&#45;&gt;D1 -->
<g id="edge8" class="edge">
<title>Div&#45;&gt;D1</title>
<path fill="none" stroke="black" stroke-dasharray="5,2" d="M355.26,-209.65C372.29,-212.12 393.25,-215.16 410.84,-217.72"/>
<polygon fill="black" stroke="black" points="410.35,-221.18 420.75,-219.16 411.35,-214.26 410.35,-221.18"/>
</g>
<!-- Div&#45;&gt;D2 -->
<g id="edge9" class="edge">
<title>Div&#45;&gt;D2</title>
<path fill="none" stroke="black" stroke-dasharray="5,2" d="M355.19,-221.62C360.61,-224.83 366.08,-228.33 371,-231.97 380.36,-238.87 380.4,-243.39 390,-249.97 396.67,-254.53 404.23,-258.71 411.62,-262.35"/>
<polygon fill="black" stroke="black" points="410.26,-265.57 420.8,-266.65 413.23,-259.24 410.26,-265.57"/>
</g>
<!-- Div&#45;&gt;D3 -->
<g id="edge10" class="edge">
<title>Div&#45;&gt;D3</title>
<path fill="none" stroke="black" stroke-dasharray="5,2" d="M355.26,-195.6C372.29,-190.66 393.25,-184.57 410.84,-179.46"/>
<polygon fill="black" stroke="black" points="412.12,-182.74 420.75,-176.59 410.17,-176.02 412.12,-182.74"/>
</g>
<!-- Lap&#45;&gt;D1 -->
<g id="edge11" class="edge">
<title>Lap&#45;&gt;D1</title>
<path fill="none" stroke="black" stroke-dasharray="5,2" d="M351.14,-165.27C357.85,-169.09 364.84,-173.43 371,-177.97 380.36,-184.87 380.4,-189.39 390,-195.97 396.67,-200.53 404.23,-204.71 411.62,-208.35"/>
<polygon fill="black" stroke="black" points="410.26,-211.57 420.8,-212.65 413.23,-205.24 410.26,-211.57"/>
</g>
<!-- Lap&#45;&gt;D2 -->
<g id="edge12" class="edge">
<title>Lap&#45;&gt;D2</title>
<path fill="none" stroke="black" stroke-dasharray="5,2" d="M351.23,-161.99C358.57,-166.04 365.85,-171.31 371,-177.97 391.24,-204.15 368.85,-224.51 390,-249.97 395.68,-256.81 403.5,-262.03 411.52,-265.96"/>
<polygon fill="black" stroke="black" points="410.35,-269.27 420.91,-270.01 413.12,-262.84 410.35,-269.27"/>
</g>
<!-- Lap&#45;&gt;D3 -->
<g id="edge13" class="edge">
<title>Lap&#45;&gt;D3</title>
<path fill="none" stroke="black" stroke-dasharray="5,2" d="M332.02,-132.65C342.19,-114.8 359.94,-91.49 380,-99.97 400.5,-108.64 417.82,-126.99 429.71,-142.59"/>
<polygon fill="black" stroke="black" points="427.03,-144.86 435.74,-150.89 432.7,-140.74 427.03,-144.86"/>
</g>
<!-- Curl&#45;&gt;D2 -->
<g id="edge14" class="edge">
<title>Curl&#45;&gt;D2</title>
<path fill="none" stroke="black" stroke-dasharray="5,2" d="M349.16,-314.41C358.97,-314.33 370.12,-313.51 380,-310.97 390.93,-308.15 402.12,-303.35 412.15,-298.24"/>
<polygon fill="black" stroke="black" points="413.84,-301.31 421,-293.5 410.53,-295.14 413.84,-301.31"/>
</g>
<!-- NonUniform -->
<g id="node6" class="node">
<title>NonUniform</title>
<polygon fill="white" stroke="black" points="625,-275.97 553,-275.97 553,-239.97 625,-239.97 625,-275.97"/>
<text text-anchor="middle" x="589" y="-255.47" font-family="Arial" font-size="10.00">Non&#45;Uniform</text>
</g>
<!-- Curvilinear -->
<g id="node7" class="node">
<title>Curvilinear</title>
<polygon fill="white" stroke="black" points="620.5,-221.97 557.5,-221.97 557.5,-185.97 620.5,-185.97 620.5,-221.97"/>
<text text-anchor="middle" x="589" y="-201.47" font-family="Arial" font-size="10.00">Curvilinear</text>
</g>
<!-- D2&#45;&gt;NonUniform -->
<g id="edge15" class="edge">
<title>D2&#45;&gt;NonUniform</title>
<path fill="none" stroke="black" d="M485.21,-272.02C502.79,-269.61 524.1,-266.7 542.74,-264.15"/>
<polygon fill="black" stroke="black" points="484.58,-268.57 475.14,-273.39 485.53,-275.51 484.58,-268.57"/>
<polygon fill="black" stroke="black" points="543.35,-267.6 552.79,-262.78 542.41,-260.67 543.35,-267.6"/>
</g>
<!-- D2&#45;&gt;Curvilinear -->
<g id="edge17" class="edge">
<title>D2&#45;&gt;Curvilinear</title>
<path fill="none" stroke="black" d="M484.24,-262.62C491.98,-258.91 499.96,-254.64 507,-249.97 517.49,-243.01 517.47,-237.86 528,-230.97 534.24,-226.88 541.21,-223.13 548.12,-219.79"/>
<polygon fill="black" stroke="black" points="482.64,-259.51 475.01,-266.85 485.56,-265.87 482.64,-259.51"/>
<polygon fill="black" stroke="black" points="549.8,-222.87 557.43,-215.52 546.88,-216.51 549.8,-222.87"/>
</g>
<!-- D3&#45;&gt;NonUniform -->
<g id="edge16" class="edge">
<title>D3&#45;&gt;NonUniform</title>
<path fill="none" stroke="black" d="M484.47,-181.41C492.45,-185.27 500.47,-190.09 507,-195.97 520.48,-208.11 514.44,-218.91 528,-230.97 532.71,-235.15 538.17,-238.78 543.84,-241.91"/>
<polygon fill="black" stroke="black" points="485.78,-178.16 475.22,-177.32 482.95,-184.56 485.78,-178.16"/>
<polygon fill="black" stroke="black" points="542.34,-245.07 552.85,-246.41 545.47,-238.81 542.34,-245.07"/>
</g>
<!-- D3&#45;&gt;Curvilinear -->
<g id="edge18" class="edge">
<title>D3&#45;&gt;Curvilinear</title>
<path fill="none" stroke="black" d="M484.94,-178.02C503.99,-182.81 527.46,-188.72 547.19,-193.69"/>
<polygon fill="black" stroke="black" points="485.7,-174.6 475.14,-175.55 483.99,-181.39 485.7,-174.6"/>
<polygon fill="black" stroke="black" points="546.57,-197.14 557.12,-196.19 548.28,-190.35 546.57,-197.14"/>
</g>
<!-- InterpolationOperators -->
<g id="node11" class="node">
<title>InterpolationOperators</title>
<polygon fill="white" stroke="black" points="252,-443.97 182,-443.97 182,-407.97 252,-407.97 252,-443.97"/>
<text text-anchor="middle" x="217" y="-428.97" font-family="Arial" font-size="10.00">Interpolation</text>
<text text-anchor="middle" x="217" y="-417.97" font-family="Arial" font-size="10.00">Operators</text>
</g>
<!-- InterpolationOperators&#45;&gt;DifferentialOperators -->
<g id="edge19" class="edge">
<title>InterpolationOperators&#45;&gt;DifferentialOperators</title>
<path fill="none" stroke="black" d="M217,-397.65C217,-382.65 217,-364.27 217,-349.26"/>
<polygon fill="black" stroke="black" points="213.5,-397.89 217,-407.89 220.5,-397.89 213.5,-397.89"/>
<polygon fill="black" stroke="black" points="220.5,-349.26 217,-339.26 213.5,-349.26 220.5,-349.26"/>
<text text-anchor="middle" x="209" y="-371.27" font-family="Arial" font-size="9.00">supports</text>
</g>
<!-- InterpolationOperators&#45;&gt;D1 -->
<g id="edge25" class="edge">
<title>InterpolationOperators&#45;&gt;D1</title>
<path fill="none" stroke="black" stroke-dasharray="1,5" d="M252.23,-431.85C289.87,-436.13 349.11,-435.95 380,-399.97 401.76,-374.62 371.21,-277.59 390,-249.97 395.19,-242.34 403.14,-236.8 411.47,-232.82"/>
<polygon fill="black" stroke="black" points="412.99,-235.97 420.92,-228.94 410.34,-229.5 412.99,-235.97"/>
</g>
<!-- InterpolationOperators&#45;&gt;D2 -->
<g id="edge26" class="edge">
<title>InterpolationOperators&#45;&gt;D2</title>
<path fill="none" stroke="black" stroke-dasharray="1,5" d="M252.16,-440.4C285.19,-451.9 335.34,-462.68 371,-439.97 417.82,-410.14 436.26,-343.13 443.16,-304.96"/>
<polygon fill="black" stroke="black" points="446.63,-305.46 444.82,-295.02 439.72,-304.31 446.63,-305.46"/>
</g>
<!-- InterpolationOperators&#45;&gt;D3 -->
<g id="edge27" class="edge">
<title>InterpolationOperators&#45;&gt;D3</title>
<path fill="none" stroke="black" stroke-dasharray="1,5" d="M252.21,-411.79C292.66,-394.32 356.34,-364.34 371,-342.97 389.63,-315.8 370.63,-222.61 390,-195.97 395.38,-188.57 403.32,-183.12 411.57,-179.14"/>
<polygon fill="black" stroke="black" points="413.03,-182.33 420.91,-175.25 410.33,-175.87 413.03,-182.33"/>
</g>
<!-- BoundaryConditions -->
<g id="node12" class="node">
<title>BoundaryConditions</title>
<polygon fill="white" stroke="black" points="88.5,-421.97 25.5,-421.97 25.5,-385.97 88.5,-385.97 88.5,-421.97"/>
<text text-anchor="middle" x="57" y="-406.97" font-family="Arial" font-size="10.00">Boundary</text>
<text text-anchor="middle" x="57" y="-395.97" font-family="Arial" font-size="10.00">Conditions</text>
</g>
<!-- BoundaryConditions&#45;&gt;DifferentialOperators -->
<g id="edge20" class="edge">
<title>BoundaryConditions&#45;&gt;DifferentialOperators</title>
<path fill="none" stroke="black" d="M97.69,-383.11C121.75,-370.48 152.33,-354.41 176.37,-341.78"/>
<polygon fill="black" stroke="black" points="96.06,-380.02 88.84,-387.77 99.32,-386.21 96.06,-380.02"/>
<polygon fill="black" stroke="black" points="178.01,-344.88 185.24,-337.13 174.76,-338.68 178.01,-344.88"/>
<text text-anchor="middle" x="140" y="-374.77" font-family="Arial" font-size="9.00">enhances</text>
</g>
<!-- BoundaryConditions&#45;&gt;D1 -->
<g id="edge28" class="edge">
<title>BoundaryConditions&#45;&gt;D1</title>
<path fill="none" stroke="black" stroke-dasharray="1,5" d="M57.37,-385.68C56.58,-337.95 60.03,-207.23 116,-119.97 134.28,-91.46 145.31,-85.49 177.5,-74.97 259.25,-48.25 305.64,-19.07 371,-74.97 412.37,-110.35 357.4,-152.37 390,-195.97 395.43,-203.23 403.32,-208.62 411.5,-212.59"/>
<polygon fill="black" stroke="black" points="410.17,-215.83 420.74,-216.49 412.89,-209.38 410.17,-215.83"/>
</g>
<!-- BoundaryConditions&#45;&gt;D2 -->
<g id="edge29" class="edge">
<title>BoundaryConditions&#45;&gt;D2</title>
<path fill="none" stroke="black" stroke-dasharray="1,5" d="M58.93,-385.72C62.76,-332.47 82.01,-176.98 177.5,-112.97 248.99,-65.04 308.15,-62.16 371,-120.97 392.16,-140.76 372.76,-226.68 390,-249.97 395.44,-257.32 403.41,-262.75 411.66,-266.73"/>
<polygon fill="black" stroke="black" points="410.42,-270 420.99,-270.63 413.12,-263.54 410.42,-270"/>
</g>
<!-- BoundaryConditions&#45;&gt;D3 -->
<g id="edge30" class="edge">
<title>BoundaryConditions&#45;&gt;D3</title>
<path fill="none" stroke="black" stroke-dasharray="1,5" d="M59.1,-385.64C63.1,-323.97 78.72,-125.12 116,-74.97 184.28,16.89 271.72,17.99 371,-38.97 408.89,-60.71 429.7,-109.46 439.58,-140.69"/>
<polygon fill="black" stroke="black" points="436.31,-141.97 442.52,-150.55 443.02,-139.97 436.31,-141.97"/>
</g>
<!-- GridTransformation -->
<g id="node13" class="node">
<title>GridTransformation</title>
<polygon fill="white" stroke="black" points="98,-529.97 16,-529.97 16,-493.97 98,-493.97 98,-529.97"/>
<text text-anchor="middle" x="57" y="-514.97" font-family="Arial" font-size="10.00">Grid</text>
<text text-anchor="middle" x="57" y="-503.97" font-family="Arial" font-size="10.00">Transformation</text>
</g>
<!-- GridTransformation&#45;&gt;DifferentialOperators -->
<g id="edge21" class="edge">
<title>GridTransformation&#45;&gt;DifferentialOperators</title>
<path fill="none" stroke="black" d="M94.52,-493.85C118.01,-480.29 147.19,-459.54 164,-432.97 178.38,-410.24 166.37,-398.46 177.5,-373.97 181.69,-364.75 187.63,-355.53 193.58,-347.42"/>
<polygon fill="black" stroke="black" points="196.41,-349.49 199.73,-339.43 190.86,-345.22 196.41,-349.49"/>
<text text-anchor="middle" x="140" y="-480.77" font-family="Arial" font-size="9.00">enables</text>
</g>
<!-- WeightFunctions -->
<g id="node14" class="node">
<title>WeightFunctions</title>
<polygon fill="white" stroke="black" points="86.5,-583.97 27.5,-583.97 27.5,-547.97 86.5,-547.97 86.5,-583.97"/>
<text text-anchor="middle" x="57" y="-568.97" font-family="Arial" font-size="10.00">Weight</text>
<text text-anchor="middle" x="57" y="-557.97" font-family="Arial" font-size="10.00">Functions</text>
</g>
<!-- WeightFunctions&#45;&gt;DifferentialOperators -->
<g id="edge22" class="edge">
<title>WeightFunctions&#45;&gt;DifferentialOperators</title>
<path fill="none" stroke="black" d="M86.47,-547.74C90.43,-544.92 94.38,-541.95 98,-538.97 106.73,-531.77 107.09,-527.94 116,-520.97 135.62,-505.6 150.54,-512.94 164,-491.97 192.51,-447.54 158.36,-423.16 177.5,-373.97 181.17,-364.53 186.95,-355.24 192.92,-347.14"/>
<polygon fill="black" stroke="black" points="195.74,-349.22 199.14,-339.18 190.23,-344.91 195.74,-349.22"/>
<text text-anchor="middle" x="140" y="-523.77" font-family="Arial" font-size="9.00">configures</text>
</g>
<!-- WeightFunctions&#45;&gt;InterpolationOperators -->
<g id="edge23" class="edge">
<title>WeightFunctions&#45;&gt;InterpolationOperators</title>
<path fill="none" stroke="black" d="M86.67,-563.95C109.9,-560.95 142.24,-553.48 164,-534.97 188.59,-514.04 202.41,-478.85 209.52,-454.12"/>
<polygon fill="black" stroke="black" points="212.96,-454.81 212.17,-444.24 206.2,-452.99 212.96,-454.81"/>
<text text-anchor="middle" x="140" y="-560.77" font-family="Arial" font-size="9.00">configures</text>
</g>
<!-- MimeticOperators -->
<g id="node15" class="node">
<title>MimeticOperators</title>
<polygon fill="white" stroke="black" points="86.5,-475.97 27.5,-475.97 27.5,-439.97 86.5,-439.97 86.5,-475.97"/>
<text text-anchor="middle" x="57" y="-460.97" font-family="Arial" font-size="10.00">Mimetic</text>
<text text-anchor="middle" x="57" y="-449.97" font-family="Arial" font-size="10.00">Operators</text>
</g>
<!-- MimeticOperators&#45;&gt;DifferentialOperators -->
<g id="edge24" class="edge">
<title>MimeticOperators&#45;&gt;DifferentialOperators</title>
<path fill="none" stroke="black" d="M85.12,-439.68C89.43,-436.77 93.84,-433.79 98,-430.97 127.38,-411.04 137.96,-410.09 164,-385.97 176.49,-374.4 188.5,-359.71 197.82,-347.22"/>
<polygon fill="black" stroke="black" points="200.75,-349.14 203.82,-339 195.1,-345.02 200.75,-349.14"/>
<text text-anchor="middle" x="140" y="-421.77" font-family="Arial" font-size="9.00">implements</text>
</g>
</g>
</svg>
