<?xml version="1.0" encoding="UTF-8" standalone="no"?>
<!DOCTYPE svg PUBLIC "-//W3C//DTD SVG 1.1//EN"
 "http://www.w3.org/Graphics/SVG/1.1/DTD/svg11.dtd">
<!-- Generated by graphviz version 2.43.0 (0)
 -->
<!-- Title: mole_class_structure Pages: 1 -->
<svg width="910pt" height="364pt"
 viewBox="0.00 0.00 909.56 363.65" xmlns="http://www.w3.org/2000/svg" xmlns:xlink="http://www.w3.org/1999/xlink">
<g id="graph0" class="graph" transform="scale(1 1) rotate(0) translate(4 359.65)">
<title>mole_class_structure</title>
<g id="clust1" class="cluster">
<title>cluster_base</title>
<polygon fill="#f5f5f5" stroke="#f5f5f5" points="141.56,-163 141.56,-321 271.56,-321 271.56,-163 141.56,-163"/>
<text text-anchor="middle" x="206.56" y="-305.8" font-family="Arial" font-size="14.00">Base Classes</text>
</g>
<g id="clust2" class="cluster">
<title>cluster_operators</title>
<polygon fill="#f5f5f5" stroke="#f5f5f5" points="308.56,-8 308.56,-155 640.56,-155 640.56,-8 308.56,-8"/>
<text text-anchor="middle" x="474.56" y="-139.8" font-family="Arial" font-size="14.00">Core Operators</text>
</g>
<g id="clust3" class="cluster">
<title>cluster_bc</title>
<polygon fill="#f5f5f5" stroke="#f5f5f5" points="20.56,-80 20.56,-155 300.56,-155 300.56,-80 20.56,-80"/>
<text text-anchor="middle" x="160.56" y="-139.8" font-family="Arial" font-size="14.00">Boundary Conditions</text>
</g>
<g id="clust4" class="cluster">
<title>cluster_utils</title>
<polygon fill="#f5f5f5" stroke="#f5f5f5" points="279.56,-163 279.56,-238 685.56,-238 685.56,-163 279.56,-163"/>
<text text-anchor="middle" x="482.56" y="-222.8" font-family="Arial" font-size="14.00">Utilities</text>
</g>
<g id="clust12" class="cluster">
<title>cluster_legend</title>
<polygon fill="#f5f5f5" stroke="#f5f5f5" points="279.56,-246 279.56,-317 893.56,-317 893.56,-246 279.56,-246"/>
<text text-anchor="middle" x="586.56" y="-305" font-family="Arial" font-size="10.00">Legend</text>
</g>
<!-- sp_mat -->
<g id="node1" class="node">
<title>sp_mat</title>
<polygon fill="#e8f4f9" stroke="black" points="252.06,-290 161.06,-290 161.06,-254 252.06,-254 252.06,-290"/>
<text text-anchor="middle" x="206.56" y="-275" font-family="Arial" font-size="10.00">sp_mat</text>
<text text-anchor="middle" x="206.56" y="-264" font-family="Arial" font-size="10.00">(Armadillo)</text>
</g>
<!-- Operator -->
<g id="node2" class="node">
<title>Operator</title>
<polygon fill="#e8f4f9" stroke="black" points="263.06,-207 150.06,-207 150.06,-171 263.06,-171 263.06,-207"/>
<text text-anchor="middle" x="206.56" y="-192" font-family="Arial" font-size="10.00">Operator</text>
<text text-anchor="middle" x="206.56" y="-181" font-family="Arial" font-size="10.00">(Abstract Base)</text>
</g>
<!-- sp_mat&#45;&gt;Operator -->
<g id="edge1" class="edge">
<title>sp_mat&#45;&gt;Operator</title>
<path fill="none" stroke="#0000aa" stroke-width="1.5" d="M206.56,-243.77C206.56,-231.66 206.56,-217.78 206.56,-207.15"/>
<polygon fill="none" stroke="#0000aa" stroke-width="1.5" points="203.06,-243.82 206.56,-253.82 210.06,-243.82 203.06,-243.82"/>
</g>
<!-- Interpol -->
<g id="node3" class="node">
<title>Interpol</title>
<polygon fill="#d5e8d4" stroke="black" points="420.56,-124 316.56,-124 316.56,-88 420.56,-88 420.56,-124"/>
<text text-anchor="middle" x="368.56" y="-109" font-family="Arial" font-size="10.00">Interpol</text>
<text text-anchor="middle" x="368.56" y="-98" font-family="Arial" font-size="10.00">(Interpolation)</text>
</g>
<!-- Operator&#45;&gt;Interpol -->
<g id="edge2" class="edge">
<title>Operator&#45;&gt;Interpol</title>
<path fill="none" stroke="#0000aa" stroke-width="1.5" d="M261.64,-167.61C266.34,-166 271.02,-164.45 275.56,-163 288.3,-158.94 292.56,-160.89 304.56,-155 321.02,-146.92 337.52,-134.41 349.65,-124.19"/>
<polygon fill="none" stroke="#0000aa" stroke-width="1.5" points="260.34,-164.36 252.04,-170.95 262.64,-170.97 260.34,-164.36"/>
</g>
<!-- Gradient -->
<g id="node4" class="node">
<title>Gradient</title>
<polygon fill="#d5e8d4" stroke="black" points="632.06,-124 551.06,-124 551.06,-88 632.06,-88 632.06,-124"/>
<text text-anchor="middle" x="591.56" y="-103.5" font-family="Arial" font-size="10.00">Gradient</text>
</g>
<!-- Operator&#45;&gt;Gradient -->
<g id="edge3" class="edge">
<title>Operator&#45;&gt;Gradient</title>
<path fill="none" stroke="#0000aa" stroke-width="1.5" d="M256.59,-167.8C262.89,-165.87 269.32,-164.19 275.56,-163 304.61,-157.45 514.3,-166.45 541.56,-155 556.88,-148.57 570.21,-135.13 579.25,-124.1"/>
<polygon fill="none" stroke="#0000aa" stroke-width="1.5" points="255.24,-164.56 246.82,-171 257.42,-171.21 255.24,-164.56"/>
</g>
<!-- Divergence -->
<g id="node5" class="node">
<title>Divergence</title>
<polygon fill="#d5e8d4" stroke="black" points="532.56,-124 438.56,-124 438.56,-88 532.56,-88 532.56,-124"/>
<text text-anchor="middle" x="485.56" y="-103.5" font-family="Arial" font-size="10.00">Divergence</text>
</g>
<!-- Operator&#45;&gt;Divergence -->
<g id="edge4" class="edge">
<title>Operator&#45;&gt;Divergence</title>
<path fill="none" stroke="#0000aa" stroke-width="1.5" d="M257.11,-167.78C263.25,-165.89 269.5,-164.23 275.56,-163 309.15,-156.2 397.74,-167.72 429.56,-155 445.97,-148.44 460.96,-135.01 471.3,-124.01"/>
<polygon fill="none" stroke="#0000aa" stroke-width="1.5" points="256,-164.46 247.59,-170.9 258.18,-171.11 256,-164.46"/>
</g>
<!-- Laplacian -->
<g id="node6" class="node">
<title>Laplacian</title>
<polygon fill="#d5e8d4" stroke="black" points="580.56,-52 494.56,-52 494.56,-16 580.56,-16 580.56,-52"/>
<text text-anchor="middle" x="537.56" y="-31.5" font-family="Arial" font-size="10.00">Laplacian</text>
</g>
<!-- Operator&#45;&gt;Laplacian -->
<g id="edge5" class="edge">
<title>Operator&#45;&gt;Laplacian</title>
<path fill="none" stroke="#0000aa" stroke-width="1.5" d="M139.83,-185.29C91.59,-181.77 32.26,-173.66 16.56,-155 -4.89,-129.49 -5.97,-104.56 16.56,-80 48.59,-45.09 374.81,-37.19 494.14,-35.46"/>
<polygon fill="none" stroke="#0000aa" stroke-width="1.5" points="139.72,-188.79 149.93,-185.98 140.19,-181.81 139.72,-188.79"/>
</g>
<!-- RobinBC -->
<g id="node7" class="node">
<title>RobinBC</title>
<polygon fill="#ffe6cc" stroke="black" points="292.56,-124 132.56,-124 132.56,-88 292.56,-88 292.56,-124"/>
<text text-anchor="middle" x="212.56" y="-109" font-family="Arial" font-size="10.00">RobinBC</text>
<text text-anchor="middle" x="212.56" y="-98" font-family="Arial" font-size="10.00">(Robin/Neumann/Dirichlet)</text>
</g>
<!-- Operator&#45;&gt;RobinBC -->
<g id="edge6" class="edge">
<title>Operator&#45;&gt;RobinBC</title>
<path fill="none" stroke="#0000aa" stroke-width="1.5" d="M208.58,-160.77C209.48,-148.66 210.51,-134.78 211.29,-124.15"/>
<polygon fill="none" stroke="#0000aa" stroke-width="1.5" points="205.09,-160.59 207.84,-170.82 212.07,-161.11 205.09,-160.59"/>
</g>
<!-- MixedBC -->
<g id="node8" class="node">
<title>MixedBC</title>
<polygon fill="#ffe6cc" stroke="black" points="114.06,-124 29.06,-124 29.06,-88 114.06,-88 114.06,-124"/>
<text text-anchor="middle" x="71.56" y="-109" font-family="Arial" font-size="10.00">MixedBC</text>
<text text-anchor="middle" x="71.56" y="-98" font-family="Arial" font-size="10.00">(Mixed)</text>
</g>
<!-- Operator&#45;&gt;MixedBC -->
<g id="edge7" class="edge">
<title>Operator&#45;&gt;MixedBC</title>
<path fill="none" stroke="#0000aa" stroke-width="1.5" d="M145.71,-166.84C138.04,-163.3 130.47,-159.35 123.56,-155 110.05,-146.49 96.85,-134.25 87.13,-124.25"/>
<polygon fill="none" stroke="#0000aa" stroke-width="1.5" points="144.52,-170.14 155.08,-170.95 147.33,-163.73 144.52,-170.14"/>
</g>
<!-- Gradient&#45;&gt;Laplacian -->
<g id="edge8" class="edge">
<title>Gradient&#45;&gt;Laplacian</title>
<path fill="none" stroke="#006600" stroke-dasharray="5,2" d="M578.22,-87.7C571.81,-79.39 564.01,-69.28 556.96,-60.14"/>
<polygon fill="#006600" stroke="#006600" points="559.64,-57.88 550.76,-52.1 554.1,-62.16 559.64,-57.88"/>
</g>
<!-- Divergence&#45;&gt;Laplacian -->
<g id="edge9" class="edge">
<title>Divergence&#45;&gt;Laplacian</title>
<path fill="none" stroke="#006600" stroke-dasharray="5,2" d="M498.42,-87.7C504.59,-79.39 512.1,-69.28 518.89,-60.14"/>
<polygon fill="#006600" stroke="#006600" points="521.7,-62.22 524.86,-52.1 516.09,-58.04 521.7,-62.22"/>
</g>
<!-- RobinBC&#45;&gt;Gradient -->
<g id="edge20" class="edge">
<title>RobinBC&#45;&gt;Gradient</title>
<path fill="none" stroke="#aa6600" stroke-dasharray="5,2" d="M237.63,-124.16C257.2,-137.05 285.67,-153.08 313.56,-159 337.37,-164.05 508.76,-164.05 532.56,-159 548.76,-155.56 562.76,-143.66 573.05,-132"/>
<polygon fill="#aa6600" stroke="#aa6600" points="575.92,-134.03 579.57,-124.08 570.51,-129.58 575.92,-134.03"/>
</g>
<!-- RobinBC&#45;&gt;Divergence -->
<g id="edge21" class="edge">
<title>RobinBC&#45;&gt;Divergence</title>
<path fill="none" stroke="#aa6600" stroke-dasharray="5,2" d="M237.63,-124.16C257.2,-137.05 285.67,-153.08 313.56,-159 336.82,-163.94 397.3,-163.94 420.56,-159 424.85,-158.09 425.88,-157.36 429.56,-155 440.37,-148.1 451.21,-139.19 460.43,-130.86"/>
<polygon fill="#aa6600" stroke="#aa6600" points="462.81,-133.42 467.77,-124.06 458.06,-128.29 462.81,-133.42"/>
</g>
<!-- MixedBC&#45;&gt;Gradient -->
<g id="edge22" class="edge">
<title>MixedBC&#45;&gt;Gradient</title>
<path fill="none" stroke="#aa6600" stroke-dasharray="5,2" d="M84.13,-124.04C95.04,-137.65 112.25,-154.69 132.56,-159 154.3,-163.61 510.83,-163.61 532.56,-159 548.76,-155.56 562.76,-143.66 573.05,-132"/>
<polygon fill="#aa6600" stroke="#aa6600" points="575.92,-134.03 579.57,-124.08 570.51,-129.58 575.92,-134.03"/>
</g>
<!-- MixedBC&#45;&gt;Divergence -->
<g id="edge23" class="edge">
<title>MixedBC&#45;&gt;Divergence</title>
<path fill="none" stroke="#aa6600" stroke-dasharray="5,2" d="M84.13,-124.04C95.04,-137.65 112.25,-154.69 132.56,-159 148.22,-162.32 404.91,-162.32 420.56,-159 437.74,-155.36 453.16,-143.38 464.66,-131.74"/>
<polygon fill="#aa6600" stroke="#aa6600" points="467.4,-133.94 471.63,-124.23 462.27,-129.17 467.4,-133.94"/>
</g>
<!-- Utils -->
<g id="node9" class="node">
<title>Utils</title>
<polygon fill="#dae8fc" stroke="black" points="413.06,-207 288.06,-207 288.06,-171 413.06,-171 413.06,-207"/>
<text text-anchor="middle" x="350.56" y="-192" font-family="Arial" font-size="10.00">Utils</text>
<text text-anchor="middle" x="350.56" y="-181" font-family="Arial" font-size="10.00">(Helper Functions)</text>
</g>
<!-- Utils&#45;&gt;Gradient -->
<g id="edge10" class="edge">
<title>Utils&#45;&gt;Gradient</title>
<path fill="none" stroke="#990000" stroke-dasharray="1,5" d="M393.83,-170.89C403.18,-167.79 413.1,-164.93 422.56,-163 448.54,-157.72 517.32,-165.71 541.56,-155 553.14,-149.88 563.65,-140.87 572.01,-132.02"/>
<polygon fill="#990000" stroke="#990000" points="574.76,-134.2 578.77,-124.39 569.52,-129.55 574.76,-134.2"/>
</g>
<!-- Utils&#45;&gt;Divergence -->
<g id="edge11" class="edge">
<title>Utils&#45;&gt;Divergence</title>
<path fill="none" stroke="#990000" stroke-dasharray="1,5" d="M398.13,-170.97C408.79,-166.38 419.82,-161 429.56,-155 440.64,-148.18 451.74,-139.21 461.1,-130.88"/>
<polygon fill="#990000" stroke="#990000" points="463.51,-133.43 468.52,-124.09 458.78,-128.26 463.51,-133.43"/>
</g>
<!-- Utils&#45;&gt;Laplacian -->
<g id="edge12" class="edge">
<title>Utils&#45;&gt;Laplacian</title>
<path fill="none" stroke="#990000" stroke-dasharray="1,5" d="M393.02,-170.92C402.59,-167.73 412.81,-164.83 422.56,-163 434.53,-160.76 633.11,-163.76 641.56,-155 664.7,-131 659.87,-107.86 641.56,-80 630.01,-62.42 609.97,-51.67 590.54,-45.12"/>
<polygon fill="#990000" stroke="#990000" points="591.37,-41.71 580.79,-42.14 589.33,-48.41 591.37,-41.71"/>
</g>
<!-- Utils&#45;&gt;RobinBC -->
<g id="edge13" class="edge">
<title>Utils&#45;&gt;RobinBC</title>
<path fill="none" stroke="#990000" stroke-dasharray="1,5" d="M321.3,-170.82C300.71,-158.74 272.98,-142.46 250.67,-129.36"/>
<polygon fill="#990000" stroke="#990000" points="252.18,-126.2 241.79,-124.15 248.64,-132.23 252.18,-126.2"/>
</g>
<!-- Utils&#45;&gt;MixedBC -->
<g id="edge14" class="edge">
<title>Utils&#45;&gt;MixedBC</title>
<path fill="none" stroke="#990000" stroke-dasharray="1,5" d="M305.87,-170.92C296.02,-167.78 285.54,-164.89 275.56,-163 242.33,-156.71 154.73,-168.14 123.56,-155 111.54,-149.93 100.53,-140.8 91.78,-131.85"/>
<polygon fill="#990000" stroke="#990000" points="94.33,-129.46 84.98,-124.47 89.18,-134.2 94.33,-129.46"/>
</g>
<!-- GridFunctions -->
<g id="node10" class="node">
<title>GridFunctions</title>
<polygon fill="#dae8fc" stroke="black" points="677.56,-207 569.56,-207 569.56,-171 677.56,-171 677.56,-207"/>
<text text-anchor="middle" x="623.56" y="-186.5" font-family="Arial" font-size="10.00">Grid Functions</text>
</g>
<!-- GridFunctions&#45;&gt;Gradient -->
<g id="edge15" class="edge">
<title>GridFunctions&#45;&gt;Gradient</title>
<path fill="none" stroke="#990000" stroke-dasharray="1,5" d="M616.78,-170.82C612.49,-159.98 606.87,-145.74 602.02,-133.47"/>
<polygon fill="#990000" stroke="#990000" points="605.27,-132.17 598.34,-124.15 598.76,-134.74 605.27,-132.17"/>
</g>
<!-- GridFunctions&#45;&gt;Divergence -->
<g id="edge16" class="edge">
<title>GridFunctions&#45;&gt;Divergence</title>
<path fill="none" stroke="#990000" stroke-dasharray="1,5" d="M580.92,-170.95C562.43,-163.5 544.51,-156.18 542.56,-155 531.32,-148.21 520.02,-139.25 510.49,-130.91"/>
<polygon fill="#990000" stroke="#990000" points="512.71,-128.2 502.93,-124.12 508.03,-133.41 512.71,-128.2"/>
</g>
<!-- WeightFunctions -->
<g id="node11" class="node">
<title>WeightFunctions</title>
<polygon fill="#dae8fc" stroke="black" points="551.56,-207 431.56,-207 431.56,-171 551.56,-171 551.56,-207"/>
<text text-anchor="middle" x="491.56" y="-186.5" font-family="Arial" font-size="10.00">Weight Functions</text>
</g>
<!-- WeightFunctions&#45;&gt;Interpol -->
<g id="edge17" class="edge">
<title>WeightFunctions&#45;&gt;Interpol</title>
<path fill="none" stroke="#990000" stroke-dasharray="1,5" d="M456.83,-170.9C447.77,-166.07 438.14,-160.6 429.56,-155 418.25,-147.62 406.45,-138.67 396.27,-130.5"/>
<polygon fill="#990000" stroke="#990000" points="398.46,-127.77 388.5,-124.16 394.04,-133.19 398.46,-127.77"/>
</g>
<!-- WeightFunctions&#45;&gt;Gradient -->
<g id="edge18" class="edge">
<title>WeightFunctions&#45;&gt;Gradient</title>
<path fill="none" stroke="#990000" stroke-dasharray="1,5" d="M519.44,-170.89C526.83,-166.01 534.66,-160.52 541.56,-155 550.45,-147.9 559.59,-139.5 567.58,-131.73"/>
<polygon fill="#990000" stroke="#990000" points="570.5,-133.76 575.14,-124.24 565.57,-128.79 570.5,-133.76"/>
</g>
<!-- WeightFunctions&#45;&gt;Divergence -->
<g id="edge19" class="edge">
<title>WeightFunctions&#45;&gt;Divergence</title>
<path fill="none" stroke="#990000" stroke-dasharray="1,5" d="M490.29,-170.82C489.5,-160.19 488.48,-146.31 487.58,-134.2"/>
<polygon fill="#990000" stroke="#990000" points="491.06,-133.87 486.83,-124.15 484.08,-134.38 491.06,-133.87"/>
</g>
<!-- leg_title -->
<g id="node12" class="node">
<title>leg_title</title>
<text text-anchor="middle" x="822.56" y="-269.8" font-family="Arial" font-size="9.00">Relationship Types:</text>
</g>
<!-- leg_inherit -->
<g id="node13" class="node">
<title>leg_inherit</title>
<text text-anchor="middle" x="696.56" y="-269.8" font-family="Arial" font-size="9.00">Inheritance</text>
</g>
<!-- leg_title&#45;&gt;leg_inherit -->
<g id="edge24" class="edge">
<title>leg_title&#45;&gt;leg_inherit</title>
<path fill="none" stroke="#0000aa" stroke-width="1.5" d="M759.5,-272C757.02,-272 754.54,-272 752.05,-272"/>
<polygon fill="#0000aa" stroke="#0000aa" stroke-width="1.5" points="751.85,-268.5 741.85,-272 751.85,-275.5 751.85,-268.5"/>
</g>
<!-- leg_usage -->
<g id="node14" class="node">
<title>leg_usage</title>
<text text-anchor="middle" x="597.56" y="-269.8" font-family="Arial" font-size="9.00">Usage</text>
</g>
<!-- leg_title&#45;&gt;leg_usage -->
<g id="edge25" class="edge">
<title>leg_title&#45;&gt;leg_usage</title>
<path fill="none" stroke="#006600" stroke-dasharray="5,2" d="M807.4,-290.27C792.57,-306.59 768.35,-329.36 741.56,-339 703.93,-352.55 687.65,-356.26 651.56,-339 634.15,-330.67 620.56,-313.69 611.37,-298.9"/>
<polygon fill="#006600" stroke="#006600" points="614.29,-296.95 606.22,-290.08 608.24,-300.48 614.29,-296.95"/>
</g>
<!-- leg_utility -->
<g id="node15" class="node">
<title>leg_utility</title>
<text text-anchor="middle" x="492.56" y="-269.8" font-family="Arial" font-size="9.00">Utility Support</text>
</g>
<!-- leg_title&#45;&gt;leg_utility -->
<g id="edge26" class="edge">
<title>leg_title&#45;&gt;leg_utility</title>
<path fill="none" stroke="#990000" stroke-dasharray="1,5" d="M807.4,-290.27C792.57,-306.59 768.35,-329.36 741.56,-339 703.93,-352.55 598.63,-354.04 561.56,-339 541.2,-330.74 523.53,-313.26 511.18,-298.23"/>
<polygon fill="#990000" stroke="#990000" points="513.8,-295.9 504.88,-290.2 508.3,-300.23 513.8,-295.9"/>
</g>
<!-- leg_boundary -->
<g id="node16" class="node">
<title>leg_boundary</title>
<text text-anchor="middle" x="355.56" y="-269.8" font-family="Arial" font-size="9.00">Boundary Modification</text>
</g>
<!-- leg_title&#45;&gt;leg_boundary -->
<g id="edge27" class="edge">
<title>leg_title&#45;&gt;leg_boundary</title>
<path fill="none" stroke="#aa6600" stroke-dasharray="5,2" d="M807.4,-290.27C792.57,-306.59 768.35,-329.36 741.56,-339 678.84,-361.58 504.61,-360.66 441.56,-339 417.57,-330.76 395.12,-312.77 379.18,-297.51"/>
<polygon fill="#aa6600" stroke="#aa6600" points="381.46,-294.85 371.9,-290.29 376.53,-299.82 381.46,-294.85"/>
</g>
</g>
</svg>
