<?xml version="1.0" encoding="UTF-8" standalone="no"?>
<!DOCTYPE svg PUBLIC "-//W3C//DTD SVG 1.1//EN"
 "http://www.w3.org/Graphics/SVG/1.1/DTD/svg11.dtd">
<!-- Generated by graphviz version 2.43.0 (0)
 -->
<!-- Title: mole_class_structure Pages: 1 -->
<svg width="999pt" height="461pt"
 viewBox="0.00 0.00 998.95 461.00" xmlns="http://www.w3.org/2000/svg" xmlns:xlink="http://www.w3.org/1999/xlink">
<g id="graph0" class="graph" transform="scale(1 1) rotate(0) translate(4 457)">
<title>mole_class_structure</title>
<g id="clust1" class="cluster">
<title>cluster_base</title>
<polygon fill="transparent" stroke="black" stroke-dasharray="5,2" points="722.79,-8 722.79,-232 824.79,-232 824.79,-8 722.79,-8"/>
<text text-anchor="middle" x="773.79" y="-15.8" font-family="Arial" font-size="14.00">Base Classes</text>
</g>
<g id="clust2" class="cluster">
<title>cluster_operators</title>
<polygon fill="transparent" stroke="black" stroke-dasharray="5,2" points="322.79,-262.5 322.79,-445 570.79,-445 570.79,-262.5 322.79,-262.5"/>
<text text-anchor="middle" x="446.79" y="-270.3" font-family="Arial" font-size="14.00">Core Operators</text>
</g>
<g id="clust3" class="cluster">
<title>cluster_bc</title>
<polygon fill="transparent" stroke="black" stroke-dasharray="5,2" points="780.79,-260 780.79,-363 964.79,-363 964.79,-260 780.79,-260"/>
<text text-anchor="middle" x="872.79" y="-267.8" font-family="Arial" font-size="14.00">Boundary Conditions</text>
</g>
<g id="clust4" class="cluster">
<title>cluster_utils</title>
<polygon fill="transparent" stroke="black" stroke-dasharray="5,2" points="79.79,-134 79.79,-232 400.79,-232 400.79,-134 79.79,-134"/>
<text text-anchor="middle" x="240.29" y="-141.8" font-family="Arial" font-size="14.00">Utilities</text>
</g>
<!-- sp_mat -->
<g id="node1" class="node">
<title>sp_mat</title>
<polygon fill="white" stroke="black" points="805.29,-98 742.29,-98 742.29,-62 805.29,-62 805.29,-98"/>
<text text-anchor="middle" x="773.79" y="-83" font-family="Arial" font-size="10.00">sp_mat</text>
<text text-anchor="middle" x="773.79" y="-72" font-family="Arial" font-size="10.00">(Armadillo)</text>
</g>
<!-- Operator -->
<g id="node2" class="node">
<title>Operator</title>
<polygon fill="white" stroke="black" points="816.29,-224 731.29,-224 731.29,-188 816.29,-188 816.29,-224"/>
<text text-anchor="middle" x="773.79" y="-209" font-family="Arial" font-size="10.00">Operator</text>
<text text-anchor="middle" x="773.79" y="-198" font-family="Arial" font-size="10.00">(Abstract Base)</text>
</g>
<!-- sp_mat&#45;&gt;Operator -->
<g id="edge1" class="edge">
<title>sp_mat&#45;&gt;Operator</title>
<path fill="none" stroke="black" d="M773.79,-108.25C773.79,-132.54 773.79,-167.34 773.79,-187.9"/>
<polygon fill="none" stroke="black" points="777.29,-108.24 773.79,-98.24 770.29,-108.24 777.29,-108.24"/>
<text text-anchor="middle" x="789.29" y="-118.8" font-family="Arial" font-size="9.00">inherits</text>
</g>
<!-- Interpol -->
<g id="node3" class="node">
<title>Interpol</title>
<polygon fill="white" stroke="black" points="562.79,-352.5 486.79,-352.5 486.79,-316.5 562.79,-316.5 562.79,-352.5"/>
<text text-anchor="middle" x="524.79" y="-337.5" font-family="Arial" font-size="10.00">Interpol</text>
<text text-anchor="middle" x="524.79" y="-326.5" font-family="Arial" font-size="10.00">(Interpolation)</text>
</g>
<!-- Operator&#45;&gt;Interpol -->
<g id="edge2" class="edge">
<title>Operator&#45;&gt;Interpol</title>
<path fill="none" stroke="black" d="M742.13,-229.87C731.19,-237.34 718.68,-245.41 706.79,-252 658.79,-278.61 600.46,-303.51 562.99,-318.62"/>
<polygon fill="none" stroke="black" points="744.31,-232.62 750.53,-224.05 740.32,-226.87 744.31,-232.62"/>
</g>
<!-- Gradient -->
<g id="node4" class="node">
<title>Gradient</title>
<polygon fill="white" stroke="black" points="384.79,-352.5 330.79,-352.5 330.79,-316.5 384.79,-316.5 384.79,-352.5"/>
<text text-anchor="middle" x="357.79" y="-332" font-family="Arial" font-size="10.00">Gradient</text>
</g>
<!-- Operator&#45;&gt;Gradient -->
<g id="edge3" class="edge">
<title>Operator&#45;&gt;Gradient</title>
<path fill="none" stroke="black" d="M721.53,-227.55C692.03,-239.07 660.35,-251.28 656.79,-252 628.13,-257.77 418.35,-244.15 393.79,-260 374.32,-272.55 365.05,-298.92 360.88,-316.42"/>
<polygon fill="none" stroke="black" points="722.96,-230.75 730.99,-223.84 720.41,-224.23 722.96,-230.75"/>
</g>
<!-- Divergence -->
<g id="node5" class="node">
<title>Divergence</title>
<polygon fill="white" stroke="black" points="468.79,-352.5 402.79,-352.5 402.79,-316.5 468.79,-316.5 468.79,-352.5"/>
<text text-anchor="middle" x="435.79" y="-332" font-family="Arial" font-size="10.00">Divergence</text>
</g>
<!-- Operator&#45;&gt;Divergence -->
<g id="edge4" class="edge">
<title>Operator&#45;&gt;Divergence</title>
<path fill="none" stroke="black" d="M733.07,-228.97C713.59,-239.05 692.28,-249.35 681.79,-252 659.79,-257.55 497.18,-248.23 477.79,-260 457.31,-272.43 445.88,-298.83 440.28,-316.37"/>
<polygon fill="none" stroke="black" points="734.89,-231.97 742.13,-224.23 731.65,-225.76 734.89,-231.97"/>
</g>
<!-- Laplacian -->
<g id="node6" class="node">
<title>Laplacian</title>
<polygon fill="white" stroke="black" points="420.79,-437 362.79,-437 362.79,-401 420.79,-401 420.79,-437"/>
<text text-anchor="middle" x="391.79" y="-416.5" font-family="Arial" font-size="10.00">Laplacian</text>
</g>
<!-- Operator&#45;&gt;Laplacian -->
<g id="edge5" class="edge">
<title>Operator&#45;&gt;Laplacian</title>
<path fill="none" stroke="black" d="M826.64,-214.1C878.28,-222.25 951.56,-237.46 968.79,-260 996.59,-296.37 999.58,-329.13 968.79,-363 931.6,-403.9 533.09,-415.11 420.98,-417.46"/>
<polygon fill="none" stroke="black" points="827.04,-210.62 816.62,-212.57 825.98,-217.54 827.04,-210.62"/>
</g>
<!-- RobinBC -->
<g id="node7" class="node">
<title>RobinBC</title>
<polygon fill="white" stroke="black" points="957.29,-355 864.29,-355 864.29,-314 957.29,-314 957.29,-355"/>
<text text-anchor="middle" x="910.79" y="-343" font-family="Arial" font-size="10.00">RobinBC</text>
<text text-anchor="middle" x="910.79" y="-332" font-family="Arial" font-size="10.00">(Robin/Neumann/</text>
<text text-anchor="middle" x="910.79" y="-321" font-family="Arial" font-size="10.00">Dirichlet)</text>
</g>
<!-- Operator&#45;&gt;RobinBC -->
<g id="edge6" class="edge">
<title>Operator&#45;&gt;RobinBC</title>
<path fill="none" stroke="black" d="M814.88,-229.58C828.65,-238.15 843.59,-248.61 855.79,-260 873.03,-276.1 888.72,-298.15 898.88,-313.89"/>
<polygon fill="none" stroke="black" points="816.4,-226.41 806.04,-224.23 812.78,-232.4 816.4,-226.41"/>
</g>
<!-- MixedBC -->
<g id="node8" class="node">
<title>MixedBC</title>
<polygon fill="white" stroke="black" points="846.29,-352.5 789.29,-352.5 789.29,-316.5 846.29,-316.5 846.29,-352.5"/>
<text text-anchor="middle" x="817.79" y="-337.5" font-family="Arial" font-size="10.00">MixedBC</text>
<text text-anchor="middle" x="817.79" y="-326.5" font-family="Arial" font-size="10.00">(Mixed)</text>
</g>
<!-- Operator&#45;&gt;MixedBC -->
<g id="edge7" class="edge">
<title>Operator&#45;&gt;MixedBC</title>
<path fill="none" stroke="black" d="M806.02,-231.65C808.68,-234.86 811.02,-238.32 812.79,-242 824.2,-265.81 822.92,-297.22 820.6,-316.35"/>
<polygon fill="none" stroke="black" points="808.33,-229 798.88,-224.2 803.27,-233.84 808.33,-229"/>
</g>
<!-- Gradient&#45;&gt;Laplacian -->
<g id="edge8" class="edge">
<title>Gradient&#45;&gt;Laplacian</title>
<path fill="none" stroke="black" stroke-dasharray="5,2" d="M360.76,-352.63C362.69,-361.86 365.64,-373.3 369.79,-383 371.09,-386.04 372.63,-389.11 374.28,-392.11"/>
<polygon fill="black" stroke="black" points="371.33,-394 379.47,-400.79 377.34,-390.41 371.33,-394"/>
<text text-anchor="middle" x="386.29" y="-375.8" font-family="Arial" font-size="9.00">used by</text>
</g>
<!-- Divergence&#45;&gt;Laplacian -->
<g id="edge9" class="edge">
<title>Divergence&#45;&gt;Laplacian</title>
<path fill="none" stroke="black" stroke-dasharray="5,2" d="M426.67,-352.59C420.59,-363.99 412.49,-379.18 405.63,-392.05"/>
<polygon fill="black" stroke="black" points="402.51,-390.46 400.89,-400.93 408.69,-393.75 402.51,-390.46"/>
<text text-anchor="middle" x="431.29" y="-375.8" font-family="Arial" font-size="9.00">used by</text>
</g>
<!-- RobinBC&#45;&gt;Gradient -->
<g id="edge20" class="edge">
<title>RobinBC&#45;&gt;Gradient</title>
<path fill="none" stroke="black" stroke-dasharray="5,2" d="M901.25,-313.84C892.2,-296.96 876.85,-274.28 855.79,-264 809.66,-241.48 437.57,-237.2 393.79,-264 378.59,-273.3 369.56,-291.25 364.34,-306.72"/>
<polygon fill="black" stroke="black" points="360.95,-305.82 361.43,-316.4 367.66,-307.83 360.95,-305.82"/>
<text text-anchor="middle" x="519.79" y="-244.8" font-family="Arial" font-size="9.00">modifies</text>
</g>
<!-- RobinBC&#45;&gt;Divergence -->
<g id="edge21" class="edge">
<title>RobinBC&#45;&gt;Divergence</title>
<path fill="none" stroke="black" stroke-dasharray="5,2" d="M901.25,-313.84C892.2,-296.96 876.85,-274.28 855.79,-264 818.04,-245.57 514.3,-243.25 477.79,-264 461.73,-273.12 451.17,-291.08 444.65,-306.59"/>
<polygon fill="black" stroke="black" points="441.24,-305.71 440.93,-316.31 447.77,-308.21 441.24,-305.71"/>
<text text-anchor="middle" x="793.79" y="-244.8" font-family="Arial" font-size="9.00">modifies</text>
</g>
<!-- MixedBC&#45;&gt;Gradient -->
<g id="edge22" class="edge">
<title>MixedBC&#45;&gt;Gradient</title>
<path fill="none" stroke="black" stroke-dasharray="5,2" d="M789.19,-323.33C744.35,-306.48 654.37,-275.31 574.79,-264 495.14,-252.68 462.39,-222 393.79,-264 378.59,-273.3 369.56,-291.25 364.34,-306.72"/>
<polygon fill="black" stroke="black" points="360.95,-305.82 361.43,-316.4 367.66,-307.83 360.95,-305.82"/>
<text text-anchor="middle" x="419.79" y="-244.8" font-family="Arial" font-size="9.00">modifies</text>
</g>
<!-- MixedBC&#45;&gt;Divergence -->
<g id="edge23" class="edge">
<title>MixedBC&#45;&gt;Divergence</title>
<path fill="none" stroke="black" stroke-dasharray="5,2" d="M789.78,-316.48C728.94,-279.83 581.82,-204.88 477.79,-264 461.73,-273.12 451.17,-291.08 444.65,-306.59"/>
<polygon fill="black" stroke="black" points="441.24,-305.71 440.93,-316.31 447.77,-308.21 441.24,-305.71"/>
<text text-anchor="middle" x="753.79" y="-244.8" font-family="Arial" font-size="9.00">modifies</text>
</g>
<!-- Utils -->
<g id="node9" class="node">
<title>Utils</title>
<polygon fill="white" stroke="black" points="393.29,-224 296.29,-224 296.29,-188 393.29,-188 393.29,-224"/>
<text text-anchor="middle" x="344.79" y="-209" font-family="Arial" font-size="10.00">Utils</text>
<text text-anchor="middle" x="344.79" y="-198" font-family="Arial" font-size="10.00">(Helper Functions)</text>
</g>
<!-- Utils&#45;&gt;Gradient -->
<g id="edge10" class="edge">
<title>Utils&#45;&gt;Gradient</title>
<path fill="none" stroke="black" stroke-dasharray="1,5" d="M346.54,-224.06C348.7,-245.09 352.4,-281.1 354.96,-306.04"/>
<polygon fill="black" stroke="black" points="351.52,-306.72 356.02,-316.31 358.48,-306 351.52,-306.72"/>
<text text-anchor="middle" x="366.79" y="-244.8" font-family="Arial" font-size="9.00">supports</text>
</g>
<!-- Utils&#45;&gt;Divergence -->
<g id="edge11" class="edge">
<title>Utils&#45;&gt;Divergence</title>
<path fill="none" stroke="black" stroke-dasharray="1,5" d="M393.43,-213.49C410.67,-218.4 428.35,-226.98 438.79,-242 451.7,-260.59 449.32,-286.81 444.66,-306.42"/>
<polygon fill="black" stroke="black" points="441.23,-305.7 442.01,-316.27 447.99,-307.53 441.23,-305.7"/>
<text text-anchor="middle" x="460.79" y="-244.8" font-family="Arial" font-size="9.00">supports</text>
</g>
<!-- Utils&#45;&gt;Laplacian -->
<g id="edge12" class="edge">
<title>Utils&#45;&gt;Laplacian</title>
<path fill="none" stroke="black" stroke-dasharray="1,5" d="M336.68,-224.19C331.4,-233.67 323.65,-244.92 313.79,-252 303.27,-259.55 293.58,-249.67 285.79,-260 258.22,-296.55 262.01,-323.88 285.79,-363 300.3,-386.87 328.9,-400.85 352.74,-408.74"/>
<polygon fill="black" stroke="black" points="352.02,-412.18 362.61,-411.76 354.07,-405.49 352.02,-412.18"/>
<text text-anchor="middle" x="303.79" y="-332.3" font-family="Arial" font-size="9.00">supports</text>
</g>
<!-- Utils&#45;&gt;RobinBC -->
<g id="edge13" class="edge">
<title>Utils&#45;&gt;RobinBC</title>
<path fill="none" stroke="black" stroke-dasharray="1,5" d="M393.34,-214.41C461.12,-224.48 588.01,-242.33 696.79,-252 714.41,-253.57 840.17,-251.69 855.79,-260 874.13,-269.77 888.06,-288.66 897.31,-304.84"/>
<polygon fill="black" stroke="black" points="894.39,-306.81 902.21,-313.97 900.56,-303.5 894.39,-306.81"/>
<text text-anchor="middle" x="714.79" y="-244.8" font-family="Arial" font-size="9.00">supports</text>
</g>
<!-- Utils&#45;&gt;MixedBC -->
<g id="edge14" class="edge">
<title>Utils&#45;&gt;MixedBC</title>
<path fill="none" stroke="black" stroke-dasharray="1,5" d="M393.35,-212.59C433.05,-217.9 490.31,-227.31 538.79,-242 549.45,-245.23 551.35,-248.08 561.79,-252 637.77,-280.53 728.74,-307.93 779.21,-322.55"/>
<polygon fill="black" stroke="black" points="778.47,-325.98 789.05,-325.39 780.41,-319.26 778.47,-325.98"/>
<text text-anchor="middle" x="579.79" y="-244.8" font-family="Arial" font-size="9.00">supports</text>
</g>
<!-- GridFunctions -->
<g id="node10" class="node">
<title>GridFunctions</title>
<polygon fill="white" stroke="black" points="167.79,-224 87.79,-224 87.79,-188 167.79,-188 167.79,-224"/>
<text text-anchor="middle" x="127.79" y="-203.5" font-family="Arial" font-size="10.00">Grid Functions</text>
</g>
<!-- GridFunctions&#45;&gt;Gradient -->
<g id="edge15" class="edge">
<title>GridFunctions&#45;&gt;Gradient</title>
<path fill="none" stroke="black" stroke-dasharray="1,5" d="M87.78,-209.51C43.01,-213.69 -19.96,-224.55 6.79,-252 18.81,-264.34 302.04,-251.09 316.79,-260 333.66,-270.21 344.14,-290.08 350.28,-306.6"/>
<polygon fill="black" stroke="black" points="347.05,-307.97 353.55,-316.33 353.68,-305.73 347.05,-307.97"/>
<text text-anchor="middle" x="28.29" y="-244.8" font-family="Arial" font-size="9.00">configures</text>
</g>
<!-- GridFunctions&#45;&gt;Divergence -->
<g id="edge16" class="edge">
<title>GridFunctions&#45;&gt;Divergence</title>
<path fill="none" stroke="black" stroke-dasharray="1,5" d="M99.13,-224.08C88.16,-232.67 80.13,-243.11 88.79,-252 100.61,-264.14 379.24,-251.3 393.79,-260 410.81,-270.18 421.56,-290.06 427.92,-306.58"/>
<polygon fill="black" stroke="black" points="424.72,-308.03 431.33,-316.32 431.32,-305.72 424.72,-308.03"/>
<text text-anchor="middle" x="110.29" y="-244.8" font-family="Arial" font-size="9.00">configures</text>
</g>
<!-- WeightFunctions -->
<g id="node11" class="node">
<title>WeightFunctions</title>
<polygon fill="white" stroke="black" points="277.79,-224 185.79,-224 185.79,-188 277.79,-188 277.79,-224"/>
<text text-anchor="middle" x="231.79" y="-203.5" font-family="Arial" font-size="10.00">Weight Functions</text>
</g>
<!-- WeightFunctions&#45;&gt;Interpol -->
<g id="edge17" class="edge">
<title>WeightFunctions&#45;&gt;Interpol</title>
<path fill="none" stroke="black" stroke-dasharray="1,5" d="M251.73,-224.14C264.76,-234.25 282.68,-246.17 300.79,-252 319.53,-258.03 460.74,-250.16 477.79,-260 495.66,-270.32 507.82,-290.47 515.29,-307.07"/>
<polygon fill="black" stroke="black" points="512.07,-308.45 519.15,-316.33 518.53,-305.76 512.07,-308.45"/>
<text text-anchor="middle" x="322.29" y="-244.8" font-family="Arial" font-size="9.00">configures</text>
</g>
<!-- WeightFunctions&#45;&gt;Gradient -->
<g id="edge18" class="edge">
<title>WeightFunctions&#45;&gt;Gradient</title>
<path fill="none" stroke="black" stroke-dasharray="1,5" d="M196.65,-224.04C190.12,-226.89 183.31,-229.68 176.79,-232 160.33,-237.86 149.45,-228.17 138.79,-242 136.07,-245.52 135.71,-248.79 138.79,-252 152.47,-266.31 299.94,-249.59 316.79,-260 333.57,-270.37 344.05,-290.24 350.21,-306.7"/>
<polygon fill="black" stroke="black" points="346.98,-308.06 353.51,-316.4 353.6,-305.81 346.98,-308.06"/>
<text text-anchor="middle" x="160.29" y="-244.8" font-family="Arial" font-size="9.00">configures</text>
</g>
<!-- WeightFunctions&#45;&gt;Divergence -->
<g id="edge19" class="edge">
<title>WeightFunctions&#45;&gt;Divergence</title>
<path fill="none" stroke="black" stroke-dasharray="1,5" d="M211.42,-224.05C203.06,-233.03 196.97,-243.84 204.79,-252 219.33,-267.17 375.83,-249.07 393.79,-260 410.73,-270.32 421.48,-290.19 427.86,-306.67"/>
<polygon fill="black" stroke="black" points="424.66,-308.11 431.29,-316.38 431.26,-305.79 424.66,-308.11"/>
<text text-anchor="middle" x="226.29" y="-244.8" font-family="Arial" font-size="9.00">configures</text>
</g>
</g>
</svg>
